<svg xmlns="http://www.w3.org/2000/svg" xmlns:xlink="http://www.w3.org/1999/xlink" contentStyleType="text/css" data-diagram-type="CLASS" height="673px" preserveAspectRatio="none" style="width:2010px;height:673px;background:#FFFFFF;" version="1.1" viewBox="0 0 2010 673" width="2010px" zoomAndPan="magnify"><?plantuml 1.2026.3beta6?><defs/><g><g class="title" data-source-line="1"><text fill="#000000" font-family="sans-serif" font-size="14" font-weight="700" lengthAdjust="spacing" textLength="227.8691" x="887.5654" y="22.9951">EnergyPilot - Class Structure</text></g><!--cluster Forecast--><g class="cluster" data-qualified-name="Forecast" data-source-line="7" id="ent0002"><path d="M8.5,43.2969 L77.8525,43.2969 A3.75,3.75 0 0 1 80.3525,45.7969 L87.3525,65.5938 L347.5,65.5938 A2.5,2.5 0 0 1 350,68.0938 L350,627.3369 A2.5,2.5 0 0 1 347.5,629.8369 L8.5,629.8369 A2.5,2.5 0 0 1 6,627.3369 L6,45.7969 A2.5,2.5 0 0 1 8.5,43.2969" fill="none" style="stroke:#000000;stroke-width:1.5;"/><line style="stroke:#000000;stroke-width:1.5;" x1="6" x2="87.3525" y1="65.5938" y2="65.5938"/><text fill="#000000" font-family="sans-serif" font-size="14" font-weight="700" lengthAdjust="spacing" textLength="68.3525" x="10" y="58.292">Forecast</text></g><!--cluster Entities--><g class="cluster" data-qualified-name="Entities" data-source-line="40" id="ent0006"><path d="M1051.5,108.4869 L1112.8408,108.4869 A3.75,3.75 0 0 1 1115.3408,110.9869 L1122.3408,130.7837 L1992.5,130.7837 A2.5,2.5 0 0 1 1995,133.2837 L1995,655.9269 A2.5,2.5 0 0 1 1992.5,658.4269 L1051.5,658.4269 A2.5,2.5 0 0 1 1049,655.9269 L1049,110.9869 A2.5,2.5 0 0 1 1051.5,108.4869" fill="none" style="stroke:#000000;stroke-width:1.5;"/><line style="stroke:#000000;stroke-width:1.5;" x1="1049" x2="1122.3408" y1="130.7837" y2="130.7837"/><text fill="#000000" font-family="sans-serif" font-size="14" font-weight="700" lengthAdjust="spacing" textLength="60.3408" x="1053" y="123.482">Entities</text></g><!--cluster Optimisation--><g class="cluster" data-qualified-name="Optimisation" data-source-line="96" id="ent0014"><path d="M376.5,108.4869 L479.1572,108.4869 A3.75,3.75 0 0 1 481.6572,110.9869 L488.6572,130.7837 L1022.5,130.7837 A2.5,2.5 0 0 1 1025,133.2837 L1025,647.7769 A2.5,2.5 0 0 1 1022.5,650.2769 L376.5,650.2769 A2.5,2.5 0 0 1 374,647.7769 L374,110.9869 A2.5,2.5 0 0 1 376.5,108.4869" fill="none" style="stroke:#000000;stroke-width:1.5;"/><line style="stroke:#000000;stroke-width:1.5;" x1="374" x2="488.6572" y1="130.7837" y2="130.7837"/><text fill="#000000" font-family="sans-serif" font-size="14" font-weight="700" lengthAdjust="spacing" textLength="101.6572" x="378" y="123.482">Optimisation</text></g><!--class ForecastParams--><g class="entity" data-qualified-name="Forecast.ForecastParams" data-source-line="8" id="ent0003"><rect fill="#F1F1F1" height="243.5625" rx="2.5" ry="2.5" style="stroke:#181818;stroke-width:0.5;" width="202.2031" x="76.9" y="78.2969"/><ellipse cx="121.596" cy="94.2969" fill="#ADD1B2" rx="11" ry="11" style="stroke:#181818;stroke-width:1;"/><path d="M124.5648,99.9375 Q123.9867,100.2344 123.346,100.375 Q122.7054,100.5313 122.0023,100.5313 Q119.5023,100.5313 118.1742,98.8906 Q116.8617,97.2344 116.8617,94.1094 Q116.8617,90.9844 118.1742,89.3281 Q119.5023,87.6719 122.0023,87.6719 Q122.7054,87.6719 123.346,87.8281 Q124.0023,87.9844 124.5648,88.2813 L124.5648,91 Q123.9398,90.4219 123.346,90.1563 Q122.7523,89.875 122.1273,89.875 Q120.7835,89.875 120.096,90.9531 Q119.4085,92.0156 119.4085,94.1094 Q119.4085,96.2031 120.096,97.2813 Q120.7835,98.3438 122.1273,98.3438 Q122.7523,98.3438 123.346,98.0781 Q123.9398,97.7969 124.5648,97.2188 L124.5648,99.9375 Z " fill="#000000"/><text fill="#000000" font-family="sans-serif" font-size="13" lengthAdjust="spacing" textLength="104.311" x="142.096" y="98.7974">ForecastParams</text><line style="stroke:#181818;stroke-width:0.5;" x1="77.9" x2="278.1031" y1="110.2969" y2="110.2969"/><text fill="#000000" font-family="sans-serif" font-size="14" lengthAdjust="spacing" textLength="47.7012" x="82.9" y="127.292">+T: int</text><text fill="#000000" font-family="sans-serif" font-size="14" lengthAdjust="spacing" textLength="66.7256" x="82.9" y="143.5889">+dt: float</text><line style="stroke:#181818;stroke-width:1;" x1="77.9" x2="278.1031" y1="150.8906" y2="150.8906"/><text fill="#000000" font-family="sans-serif" font-size="14" lengthAdjust="spacing" textLength="190.2031" x="82.9" y="167.8857">+price_buy_mean: ndarray</text><text fill="#000000" font-family="sans-serif" font-size="14" lengthAdjust="spacing" textLength="172.1699" x="82.9" y="184.1826">+price_buy_std: ndarray</text><text fill="#000000" font-family="sans-serif" font-size="14" lengthAdjust="spacing" textLength="187.8447" x="82.9" y="200.4795">+price_sell_mean: ndarray</text><text fill="#000000" font-family="sans-serif" font-size="14" lengthAdjust="spacing" textLength="169.8115" x="82.9" y="216.7764">+price_sell_std: ndarray</text><text fill="#000000" font-family="sans-serif" font-size="14" lengthAdjust="spacing" textLength="139.4873" x="82.9" y="233.0732">+pv_mean: ndarray</text><text fill="#000000" font-family="sans-serif" font-size="14" lengthAdjust="spacing" textLength="121.4541" x="82.9" y="249.3701">+pv_std: ndarray</text><text fill="#000000" font-family="sans-serif" font-size="14" lengthAdjust="spacing" textLength="152.2363" x="82.9" y="265.667">+load_mean: ndarray</text><text fill="#000000" font-family="sans-serif" font-size="14" lengthAdjust="spacing" textLength="134.2031" x="82.9" y="281.9639">+load_std: ndarray</text><text fill="#000000" font-family="sans-serif" font-size="14" lengthAdjust="spacing" textLength="188.8701" x="82.9" y="298.2607">+temp_out_mean: ndarray</text><text fill="#000000" font-family="sans-serif" font-size="14" lengthAdjust="spacing" textLength="170.8369" x="82.9" y="314.5576">+temp_out_std: ndarray</text></g><!--class ForecastTrajectory--><g class="entity" data-qualified-name="Forecast.ForecastTrajectory" data-source-line="24" id="ent0004"><rect fill="#F1F1F1" height="186.375" rx="2.5" ry="2.5" style="stroke:#181818;stroke-width:0.5;" width="311.0996" x="22.45" y="427.4569"/><ellipse cx="112.8218" cy="443.4569" fill="#ADD1B2" rx="11" ry="11" style="stroke:#181818;stroke-width:1;"/><path d="M115.7906,449.0975 Q115.2125,449.3944 114.5718,449.535 Q113.9312,449.6912 113.2281,449.6912 Q110.7281,449.6912 109.4,448.0506 Q108.0875,446.3944 108.0875,443.2694 Q108.0875,440.1444 109.4,438.4881 Q110.7281,436.8319 113.2281,436.8319 Q113.9312,436.8319 114.5718,436.9881 Q115.2281,437.1444 115.7906,437.4412 L115.7906,440.16 Q115.1656,439.5819 114.5718,439.3162 Q113.9781,439.035 113.3531,439.035 Q112.0093,439.035 111.3218,440.1131 Q110.6343,441.1756 110.6343,443.2694 Q110.6343,445.3631 111.3218,446.4412 Q112.0093,447.5037 113.3531,447.5037 Q113.9781,447.5037 114.5718,447.2381 Q115.1656,446.9569 115.7906,446.3787 L115.7906,449.0975 Z " fill="#000000"/><text fill="#000000" font-family="sans-serif" font-size="13" lengthAdjust="spacing" textLength="121.856" x="133.3218" y="447.9574">ForecastTrajectory</text><line style="stroke:#181818;stroke-width:0.5;" x1="23.45" x2="332.5496" y1="459.4569" y2="459.4569"/><text fill="#000000" font-family="sans-serif" font-size="14" lengthAdjust="spacing" textLength="47.7012" x="28.45" y="476.452">+T: int</text><text fill="#000000" font-family="sans-serif" font-size="14" lengthAdjust="spacing" textLength="66.7256" x="28.45" y="492.7489">+dt: float</text><line style="stroke:#181818;stroke-width:1;" x1="23.45" x2="332.5496" y1="500.0506" y2="500.0506"/><text fill="#000000" font-family="sans-serif" font-size="14" lengthAdjust="spacing" textLength="143.5" x="28.45" y="517.0457">+price_buy: ndarray</text><text fill="#000000" font-family="sans-serif" font-size="14" lengthAdjust="spacing" textLength="141.1416" x="28.45" y="533.3426">+price_sell: ndarray</text><text fill="#000000" font-family="sans-serif" font-size="14" lengthAdjust="spacing" textLength="92.7842" x="28.45" y="549.6395">+pv: ndarray</text><text fill="#000000" font-family="sans-serif" font-size="14" lengthAdjust="spacing" textLength="105.5332" x="28.45" y="565.9364">+load: ndarray</text><text fill="#000000" font-family="sans-serif" font-size="14" lengthAdjust="spacing" textLength="142.167" x="28.45" y="582.2332">+temp_out: ndarray</text><line style="stroke:#181818;stroke-width:1;" x1="23.45" x2="332.5496" y1="589.535" y2="589.535"/><text fill="#000000" font-family="sans-serif" font-size="14" lengthAdjust="spacing" text-decoration="underline" textLength="299.0996" x="28.45" y="606.5301">+sample(params, rng): ForecastTrajectory</text></g><!--class Entity--><g class="entity" data-qualified-name="Entities.Entity" data-source-line="41" id="ent0007"><rect fill="#F1F1F1" height="113.1875" rx="2.5" ry="2.5" style="stroke:#181818;stroke-width:0.5;" width="330.3018" x="1313.85" y="143.4869"/><ellipse cx="1455.7746" cy="159.4869" fill="#A9DCDF" rx="11" ry="11" style="stroke:#181818;stroke-width:1;"/><path d="M1455.8839,154.8306 L1454.7277,159.9087 L1457.0558,159.9087 L1455.8839,154.8306 Z M1454.3996,152.5962 L1457.3839,152.5962 L1460.7433,164.9869 L1458.2902,164.9869 L1457.5246,161.9244 L1454.2433,161.9244 L1453.4933,164.9869 L1451.0558,164.9869 L1454.3996,152.5962 Z " fill="#000000"/><text fill="#000000" font-family="sans-serif" font-size="13" font-style="italic" lengthAdjust="spacing" textLength="37.9526" x="1476.2746" y="163.9874">Entity</text><line style="stroke:#181818;stroke-width:0.5;" x1="1314.85" x2="1643.1518" y1="175.4869" y2="175.4869"/><line style="stroke:#181818;stroke-width:0.5;" x1="1314.85" x2="1643.1518" y1="183.4869" y2="183.4869"/><text fill="#000000" font-family="sans-serif" font-size="14" font-style="italic" lengthAdjust="spacing" textLength="117.6602" x="1319.85" y="200.482">+register(reg, T)</text><text fill="#000000" font-family="sans-serif" font-size="14" font-style="italic" lengthAdjust="spacing" textLength="318.3018" x="1319.85" y="216.7789">+contribute(reg, constraints, objective, T, dt)</text><text fill="#000000" font-family="sans-serif" font-size="14" font-style="italic" lengthAdjust="spacing" textLength="217.6768" x="1319.85" y="233.0757">+net_power(reg, x, T): ndarray</text><text fill="#000000" font-family="sans-serif" font-size="14" font-style="italic" lengthAdjust="spacing" textLength="127.5039" x="1319.85" y="249.3726">+bounds(T): tuple</text></g><!--class Battery--><g class="entity" data-qualified-name="Entities.Battery" data-source-line="48" id="ent0008"><rect fill="#F1F1F1" height="194.6719" rx="2.5" ry="2.5" style="stroke:#181818;stroke-width:0.5;" width="311.9951" x="1667" y="423.3069"/><ellipse cx="1794.6899" cy="439.3069" fill="#ADD1B2" rx="11" ry="11" style="stroke:#181818;stroke-width:1;"/><path d="M1797.6587,444.9475 Q1797.0806,445.2444 1796.4399,445.385 Q1795.7993,445.5413 1795.0962,445.5413 Q1792.5962,445.5413 1791.2681,443.9006 Q1789.9556,442.2444 1789.9556,439.1194 Q1789.9556,435.9944 1791.2681,434.3381 Q1792.5962,432.6819 1795.0962,432.6819 Q1795.7993,432.6819 1796.4399,432.8381 Q1797.0962,432.9944 1797.6587,433.2913 L1797.6587,436.01 Q1797.0337,435.4319 1796.4399,435.1663 Q1795.8462,434.885 1795.2212,434.885 Q1793.8774,434.885 1793.1899,435.9631 Q1792.5024,437.0256 1792.5024,439.1194 Q1792.5024,441.2131 1793.1899,442.2913 Q1793.8774,443.3538 1795.2212,443.3538 Q1795.8462,443.3538 1796.4399,443.0881 Q1797.0337,442.8069 1797.6587,442.2288 L1797.6587,444.9475 Z " fill="#000000"/><text fill="#000000" font-family="sans-serif" font-size="13" lengthAdjust="spacing" textLength="48.1152" x="1815.1899" y="443.8074">Battery</text><line style="stroke:#181818;stroke-width:0.5;" x1="1668" x2="1977.9951" y1="455.3069" y2="455.3069"/><text fill="#000000" font-family="sans-serif" font-size="14" lengthAdjust="spacing" textLength="111.4531" x="1673" y="472.302">+capacity: float</text><text fill="#000000" font-family="sans-serif" font-size="14" lengthAdjust="spacing" textLength="105.0479" x="1673" y="488.5989">+soc_init: float</text><text fill="#000000" font-family="sans-serif" font-size="14" lengthAdjust="spacing" textLength="138.2568" x="1673" y="504.8957">+charge_max: float</text><text fill="#000000" font-family="sans-serif" font-size="14" lengthAdjust="spacing" textLength="158.3271" x="1673" y="521.1926">+discharge_max: float</text><text fill="#000000" font-family="sans-serif" font-size="14" lengthAdjust="spacing" textLength="109.3066" x="1673" y="537.4895">+soc_min: float</text><text fill="#000000" font-family="sans-serif" font-size="14" lengthAdjust="spacing" textLength="119.7656" x="1673" y="553.7864">+efficiency: float</text><line style="stroke:#181818;stroke-width:1;" x1="1668" x2="1977.9951" y1="561.0881" y2="561.0881"/><text fill="#000000" font-family="sans-serif" font-size="14" lengthAdjust="spacing" textLength="299.9951" x="1673" y="578.0832">x_bat^t &#8712; [&#8722;discharge_max, charge_max]</text><text fill="#000000" font-family="sans-serif" font-size="14" lengthAdjust="spacing" textLength="227.7119" x="1673" y="594.3801">soc_bat^t &#8712; [soc_min, capacity]</text><text fill="#000000" font-family="sans-serif" font-size="14" lengthAdjust="spacing" textLength="214.498" x="1673" y="610.677">soc^{t+1} = soc^t + x^t &#183; dt</text></g><!--class ElectricVehicle--><g class="entity" data-qualified-name="Entities.ElectricVehicle" data-source-line="61" id="ent0009"><rect fill="#F1F1F1" height="210.9688" rx="2.5" ry="2.5" style="stroke:#181818;stroke-width:0.5;" width="226.498" x="1064.75" y="415.1569"/><ellipse cx="1125.9131" cy="431.1569" fill="#ADD1B2" rx="11" ry="11" style="stroke:#181818;stroke-width:1;"/><path d="M1128.8818,436.7975 Q1128.3037,437.0944 1127.6631,437.235 Q1127.0225,437.3913 1126.3193,437.3913 Q1123.8193,437.3913 1122.4912,435.7506 Q1121.1787,434.0944 1121.1787,430.9694 Q1121.1787,427.8444 1122.4912,426.1881 Q1123.8193,424.5319 1126.3193,424.5319 Q1127.0225,424.5319 1127.6631,424.6881 Q1128.3193,424.8444 1128.8818,425.1413 L1128.8818,427.86 Q1128.2568,427.2819 1127.6631,427.0163 Q1127.0693,426.735 1126.4443,426.735 Q1125.1006,426.735 1124.4131,427.8131 Q1123.7256,428.8756 1123.7256,430.9694 Q1123.7256,433.0631 1124.4131,434.1413 Q1125.1006,435.2038 1126.4443,435.2038 Q1127.0693,435.2038 1127.6631,434.9381 Q1128.2568,434.6569 1128.8818,434.0788 L1128.8818,436.7975 Z " fill="#000000"/><text fill="#000000" font-family="sans-serif" font-size="13" lengthAdjust="spacing" textLength="95.6719" x="1146.4131" y="435.6574">ElectricVehicle</text><line style="stroke:#181818;stroke-width:0.5;" x1="1065.75" x2="1290.248" y1="447.1569" y2="447.1569"/><text fill="#000000" font-family="sans-serif" font-size="14" lengthAdjust="spacing" textLength="111.4531" x="1070.75" y="464.152">+capacity: float</text><text fill="#000000" font-family="sans-serif" font-size="14" lengthAdjust="spacing" textLength="105.0479" x="1070.75" y="480.4489">+soc_init: float</text><text fill="#000000" font-family="sans-serif" font-size="14" lengthAdjust="spacing" textLength="138.2568" x="1070.75" y="496.7457">+charge_max: float</text><text fill="#000000" font-family="sans-serif" font-size="14" lengthAdjust="spacing" textLength="125.7197" x="1070.75" y="513.0426">+target_soc: float</text><text fill="#000000" font-family="sans-serif" font-size="14" lengthAdjust="spacing" textLength="150.876" x="1070.75" y="529.3395">+target_timestep: int</text><text fill="#000000" font-family="sans-serif" font-size="14" lengthAdjust="spacing" textLength="119.7656" x="1070.75" y="545.6364">+efficiency: float</text><line style="stroke:#181818;stroke-width:1;" x1="1065.75" x2="1290.248" y1="552.9381" y2="552.9381"/><text fill="#000000" font-family="sans-serif" font-size="14" lengthAdjust="spacing" textLength="185.1377" x="1070.75" y="569.9332">x_ev^t &#8712; [0, charge_max]</text><text fill="#000000" font-family="sans-serif" font-size="14" lengthAdjust="spacing" textLength="173.6055" x="1070.75" y="586.2301">soc_ev^t &#8712; [0, capacity]</text><text fill="#000000" font-family="sans-serif" font-size="14" lengthAdjust="spacing" textLength="214.498" x="1070.75" y="602.527">soc^{t+1} = soc^t + x^t &#183; dt</text><text fill="#000000" font-family="sans-serif" font-size="14" lengthAdjust="spacing" textLength="205.4678" x="1070.75" y="618.8239">soc^{T_target} &#8805; target_soc</text></g><!--class HeatPump--><g class="entity" data-qualified-name="Entities.HeatPump" data-source-line="75" id="ent0010"><rect fill="#F1F1F1" height="243.5625" rx="2.5" ry="2.5" style="stroke:#181818;stroke-width:0.5;" width="305.0498" x="1326.48" y="398.8669"/><ellipse cx="1440.8394" cy="414.8669" fill="#ADD1B2" rx="11" ry="11" style="stroke:#181818;stroke-width:1;"/><path d="M1443.8081,420.5075 Q1443.23,420.8044 1442.5894,420.945 Q1441.9488,421.1013 1441.2456,421.1013 Q1438.7456,421.1013 1437.4175,419.4606 Q1436.105,417.8044 1436.105,414.6794 Q1436.105,411.5544 1437.4175,409.8981 Q1438.7456,408.2419 1441.2456,408.2419 Q1441.9488,408.2419 1442.5894,408.3981 Q1443.2456,408.5544 1443.8081,408.8513 L1443.8081,411.57 Q1443.1831,410.9919 1442.5894,410.7263 Q1441.9956,410.445 1441.3706,410.445 Q1440.0269,410.445 1439.3394,411.5231 Q1438.6519,412.5856 1438.6519,414.6794 Q1438.6519,416.7731 1439.3394,417.8513 Q1440.0269,418.9138 1441.3706,418.9138 Q1441.9956,418.9138 1442.5894,418.6481 Q1443.1831,418.3669 1443.8081,417.7888 L1443.8081,420.5075 Z " fill="#000000"/><text fill="#000000" font-family="sans-serif" font-size="13" lengthAdjust="spacing" textLength="67.8311" x="1461.3394" y="419.3674">HeatPump</text><line style="stroke:#181818;stroke-width:0.5;" x1="1327.48" x2="1630.5298" y1="430.8669" y2="430.8669"/><text fill="#000000" font-family="sans-serif" font-size="14" lengthAdjust="spacing" textLength="118.1182" x="1332.48" y="447.862">+temp_init: float</text><text fill="#000000" font-family="sans-serif" font-size="14" lengthAdjust="spacing" textLength="145.6396" x="1332.48" y="464.1589">+temp_min: ndarray</text><text fill="#000000" font-family="sans-serif" font-size="14" lengthAdjust="spacing" textLength="149.7412" x="1332.48" y="480.4557">+temp_max: ndarray</text><text fill="#000000" font-family="sans-serif" font-size="14" lengthAdjust="spacing" textLength="142.167" x="1332.48" y="496.7526">+temp_out: ndarray</text><text fill="#000000" font-family="sans-serif" font-size="14" lengthAdjust="spacing" textLength="133.123" x="1332.48" y="513.0495">+max_power: float</text><text fill="#000000" font-family="sans-serif" font-size="14" lengthAdjust="spacing" textLength="111.4941" x="1332.48" y="529.3464">+C_therm: float</text><text fill="#000000" font-family="sans-serif" font-size="14" lengthAdjust="spacing" textLength="111.8086" x="1332.48" y="545.6432">+lambda_: float</text><text fill="#000000" font-family="sans-serif" font-size="14" lengthAdjust="spacing" textLength="107.1807" x="1332.48" y="561.9401">+cop_eta: float</text><line style="stroke:#181818;stroke-width:1;" x1="1327.48" x2="1630.5298" y1="569.2419" y2="569.2419"/><text fill="#000000" font-family="sans-serif" font-size="14" lengthAdjust="spacing" textLength="180.8652" x="1332.48" y="586.237">x_hp^t &#8712; [0, max_power]</text><text fill="#000000" font-family="sans-serif" font-size="14" lengthAdjust="spacing" textLength="293.0498" x="1332.48" y="602.5339">temp^{t+1} = temp^t + cop^t&#183;x^t&#183;dt/C</text><text fill="#000000" font-family="sans-serif" font-size="14" lengthAdjust="spacing" textLength="188.8428" x="1332.48" y="618.8307">&#8722; &#955;&#183;(temp^t &#8722; T_out^t)&#183;dt</text><text fill="#000000" font-family="sans-serif" font-size="14" lengthAdjust="spacing" textLength="273.3623" x="1332.48" y="635.1276">temp^t &#8712; [temp_min^t, temp_max^t]</text></g><!--class VariableRegistry--><g class="entity" data-qualified-name="Optimisation.VariableRegistry" data-source-line="97" id="ent0015"><rect fill="#F1F1F1" height="96.8906" rx="2.5" ry="2.5" style="stroke:#181818;stroke-width:0.5;" width="226.9287" x="782.54" y="472.1969"/><ellipse cx="838.031" cy="488.1969" fill="#ADD1B2" rx="11" ry="11" style="stroke:#181818;stroke-width:1;"/><path d="M840.9997,493.8375 Q840.4216,494.1344 839.781,494.275 Q839.1403,494.4313 838.4372,494.4313 Q835.9372,494.4313 834.6091,492.7906 Q833.2966,491.1344 833.2966,488.0094 Q833.2966,484.8844 834.6091,483.2281 Q835.9372,481.5719 838.4372,481.5719 Q839.1403,481.5719 839.781,481.7281 Q840.4372,481.8844 840.9997,482.1813 L840.9997,484.9 Q840.3747,484.3219 839.781,484.0563 Q839.1872,483.775 838.5622,483.775 Q837.2185,483.775 836.531,484.8531 Q835.8435,485.9156 835.8435,488.0094 Q835.8435,490.1031 836.531,491.1813 Q837.2185,492.2438 838.5622,492.2438 Q839.1872,492.2438 839.781,491.9781 Q840.3747,491.6969 840.9997,491.1188 L840.9997,493.8375 Z " fill="#000000"/><text fill="#000000" font-family="sans-serif" font-size="13" lengthAdjust="spacing" textLength="107.4468" x="858.531" y="492.6974">VariableRegistry</text><line style="stroke:#181818;stroke-width:0.5;" x1="783.54" x2="1008.4687" y1="504.1969" y2="504.1969"/><text fill="#000000" font-family="sans-serif" font-size="14" lengthAdjust="spacing" textLength="84.9365" x="788.54" y="521.192">+n_vars: int</text><line style="stroke:#181818;stroke-width:1;" x1="783.54" x2="1008.4687" y1="528.4938" y2="528.4938"/><text fill="#000000" font-family="sans-serif" font-size="14" lengthAdjust="spacing" textLength="214.9287" x="788.54" y="545.4889">+register(name, count): range</text><text fill="#000000" font-family="sans-serif" font-size="14" lengthAdjust="spacing" textLength="194.8516" x="788.54" y="561.7857">+__getitem__(name): range</text></g><!--class Constraints--><g class="entity" data-qualified-name="Optimisation.Constraints" data-source-line="104" id="ent0016"><rect fill="#F1F1F1" height="129.4844" rx="2.5" ry="2.5" style="stroke:#181818;stroke-width:0.5;" width="167.0596" x="390.47" y="455.9069"/><ellipse cx="432.8692" cy="471.9069" fill="#ADD1B2" rx="11" ry="11" style="stroke:#181818;stroke-width:1;"/><path d="M435.838,477.5475 Q435.2599,477.8444 434.6192,477.985 Q433.9786,478.1413 433.2755,478.1413 Q430.7755,478.1413 429.4474,476.5006 Q428.1349,474.8444 428.1349,471.7194 Q428.1349,468.5944 429.4474,466.9381 Q430.7755,465.2819 433.2755,465.2819 Q433.9786,465.2819 434.6192,465.4381 Q435.2755,465.5944 435.838,465.8913 L435.838,468.61 Q435.213,468.0319 434.6192,467.7663 Q434.0255,467.485 433.4005,467.485 Q432.0567,467.485 431.3692,468.5631 Q430.6817,469.6256 430.6817,471.7194 Q430.6817,473.8131 431.3692,474.8913 Q432.0567,475.9538 433.4005,475.9538 Q434.0255,475.9538 434.6192,475.6881 Q435.213,475.4069 435.838,474.8288 L435.838,477.5475 Z " fill="#000000"/><text fill="#000000" font-family="sans-serif" font-size="13" lengthAdjust="spacing" textLength="74.1724" x="452.958" y="476.4074">Constraints</text><line style="stroke:#181818;stroke-width:0.5;" x1="391.47" x2="556.5296" y1="487.9069" y2="487.9069"/><text fill="#000000" font-family="sans-serif" font-size="14" lengthAdjust="spacing" textLength="74.5254" x="396.47" y="504.902">+rows: list</text><text fill="#000000" font-family="sans-serif" font-size="14" lengthAdjust="spacing" textLength="53.915" x="396.47" y="521.1989">+lo: list</text><text fill="#000000" font-family="sans-serif" font-size="14" lengthAdjust="spacing" textLength="54.2227" x="396.47" y="537.4957">+hi: list</text><line style="stroke:#181818;stroke-width:1;" x1="391.47" x2="556.5296" y1="544.7975" y2="544.7975"/><text fill="#000000" font-family="sans-serif" font-size="14" lengthAdjust="spacing" textLength="128.9326" x="396.47" y="561.7926">+add_eq(row, val)</text><text fill="#000000" font-family="sans-serif" font-size="14" lengthAdjust="spacing" textLength="155.0596" x="396.47" y="578.0895">+add_ineq(row, lo, hi)</text></g><!--class Household--><g class="entity" data-qualified-name="Optimisation.Household" data-source-line="113" id="ent0017"><rect fill="#F1F1F1" height="113.1875" rx="2.5" ry="2.5" style="stroke:#181818;stroke-width:0.5;" width="281.9785" x="727.01" y="143.4869"/><ellipse cx="829.3513" cy="159.4869" fill="#ADD1B2" rx="11" ry="11" style="stroke:#181818;stroke-width:1;"/><path d="M832.3201,165.1275 Q831.7419,165.4244 831.1013,165.565 Q830.4607,165.7212 829.7576,165.7212 Q827.2576,165.7212 825.9294,164.0806 Q824.6169,162.4244 824.6169,159.2994 Q824.6169,156.1744 825.9294,154.5181 Q827.2576,152.8619 829.7576,152.8619 Q830.4607,152.8619 831.1013,153.0181 Q831.7576,153.1744 832.3201,153.4712 L832.3201,156.19 Q831.6951,155.6119 831.1013,155.3462 Q830.5076,155.065 829.8826,155.065 Q828.5388,155.065 827.8513,156.1431 Q827.1638,157.2056 827.1638,159.2994 Q827.1638,161.3931 827.8513,162.4712 Q828.5388,163.5337 829.8826,163.5337 Q830.5076,163.5337 831.1013,163.2681 Q831.6951,162.9869 832.3201,162.4087 L832.3201,165.1275 Z " fill="#000000"/><text fill="#000000" font-family="sans-serif" font-size="13" lengthAdjust="spacing" textLength="68.7959" x="849.8513" y="163.9874">Household</text><line style="stroke:#181818;stroke-width:0.5;" x1="728.01" x2="1007.9885" y1="175.4869" y2="175.4869"/><text fill="#000000" font-family="sans-serif" font-size="14" lengthAdjust="spacing" textLength="123.8125" x="733.01" y="192.482">+battery: Battery</text><text fill="#000000" font-family="sans-serif" font-size="14" lengthAdjust="spacing" textLength="140.8271" x="733.01" y="208.7789">+ev: ElectricVehicle</text><text fill="#000000" font-family="sans-serif" font-size="14" lengthAdjust="spacing" textLength="172.7852" x="733.01" y="225.0757">+heat_pump: HeatPump</text><line style="stroke:#181818;stroke-width:1;" x1="728.01" x2="1007.9885" y1="232.3775" y2="232.3775"/><text fill="#000000" font-family="sans-serif" font-size="14" lengthAdjust="spacing" textLength="269.9785" x="733.01" y="249.3726">+solve(trajectory): OptimisationResult</text></g><!--class OptimisationResult--><g class="entity" data-qualified-name="Optimisation.OptimisationResult" data-source-line="121" id="ent0018"><rect fill="#F1F1F1" height="227.2656" rx="2.5" ry="2.5" style="stroke:#181818;stroke-width:0.5;" width="155.8618" x="592.07" y="407.0169"/><ellipse cx="607.07" cy="423.0169" fill="#ADD1B2" rx="11" ry="11" style="stroke:#181818;stroke-width:1;"/><path d="M610.0388,428.6575 Q609.4606,428.9544 608.82,429.095 Q608.1794,429.2512 607.4763,429.2512 Q604.9763,429.2512 603.6481,427.6106 Q602.3356,425.9544 602.3356,422.8294 Q602.3356,419.7044 603.6481,418.0481 Q604.9763,416.3919 607.4763,416.3919 Q608.1794,416.3919 608.82,416.5481 Q609.4763,416.7044 610.0388,417.0012 L610.0388,419.72 Q609.4138,419.1419 608.82,418.8762 Q608.2263,418.595 607.6013,418.595 Q606.2575,418.595 605.57,419.6731 Q604.8825,420.7356 604.8825,422.8294 Q604.8825,424.9231 605.57,426.0012 Q606.2575,427.0637 607.6013,427.0637 Q608.2263,427.0637 608.82,426.7981 Q609.4138,426.5169 610.0388,425.9387 L610.0388,428.6575 Z " fill="#000000"/><text fill="#000000" font-family="sans-serif" font-size="13" lengthAdjust="spacing" textLength="123.8618" x="621.07" y="427.5174">OptimisationResult</text><line style="stroke:#181818;stroke-width:0.5;" x1="593.07" x2="746.9318" y1="439.0169" y2="439.0169"/><text fill="#000000" font-family="sans-serif" font-size="14" lengthAdjust="spacing" textLength="105.5674" x="598.07" y="456.012">+success: bool</text><text fill="#000000" font-family="sans-serif" font-size="14" lengthAdjust="spacing" textLength="120.4082" x="598.07" y="472.3089">+total_cost: float</text><text fill="#000000" font-family="sans-serif" font-size="14" lengthAdjust="spacing" textLength="102.3545" x="598.07" y="488.6057">+message: str</text><line style="stroke:#181818;stroke-width:1;" x1="593.07" x2="746.9318" y1="495.9075" y2="495.9075"/><text fill="#000000" font-family="sans-serif" font-size="14" lengthAdjust="spacing" textLength="113.8525" x="598.07" y="512.9026">+x_bat: ndarray</text><text fill="#000000" font-family="sans-serif" font-size="14" lengthAdjust="spacing" textLength="107.7959" x="598.07" y="529.1995">+x_ev: ndarray</text><text fill="#000000" font-family="sans-serif" font-size="14" lengthAdjust="spacing" textLength="108.6572" x="598.07" y="545.4964">+x_hp: ndarray</text><text fill="#000000" font-family="sans-serif" font-size="14" lengthAdjust="spacing" textLength="117.5439" x="598.07" y="561.7932">+p_buy: ndarray</text><text fill="#000000" font-family="sans-serif" font-size="14" lengthAdjust="spacing" textLength="115.1855" x="598.07" y="578.0901">+p_sell: ndarray</text><text fill="#000000" font-family="sans-serif" font-size="14" lengthAdjust="spacing" textLength="129.124" x="598.07" y="594.387">+soc_bat: ndarray</text><text fill="#000000" font-family="sans-serif" font-size="14" lengthAdjust="spacing" textLength="123.0674" x="598.07" y="610.6839">+soc_ev: ndarray</text><text fill="#000000" font-family="sans-serif" font-size="14" lengthAdjust="spacing" textLength="132.002" x="598.07" y="626.9807">+temp_in: ndarray</text></g><!--link ForecastParams to ForecastTrajectory--><g class="link" data-entity-1="ent0003" data-entity-2="ent0004" data-link-type="dependency" data-source-line="37" id="lnk5"><path codeLine="37" d="M178,321.9769 C178,356.8269 178,388.2769 178,421.1169" fill="none" id="ForecastParams-to-ForecastTrajectory" style="stroke:#181818;stroke-width:1;stroke-dasharray:7,7;"/><polygon fill="#181818" points="178,427.1169,182,418.1169,178,422.1169,174,418.1169,178,427.1169" style="stroke:#181818;stroke-width:1;"/><text fill="#000000" font-family="sans-serif" font-size="13" lengthAdjust="spacing" textLength="57.4082" x="179" y="364.9338">sample()</text></g><!--reverse link Entity to Battery--><g class="link" data-entity-1="ent0007" data-entity-2="ent0008" data-link-type="extension" data-source-line="91" id="lnk11"><path codeLine="91" d="M1552.5175,269.1664 C1601.9475,314.9364 1659.84,368.5569 1718.5,422.8669" fill="none" id="Entity-backto-Battery" style="stroke:#181818;stroke-width:1;"/><polygon fill="none" points="1539.31,256.9369,1548.441,273.5689,1556.594,264.7639,1539.31,256.9369" style="stroke:#181818;stroke-width:1;"/></g><!--reverse link Entity to ElectricVehicle--><g class="link" data-entity-1="ent0007" data-entity-2="ent0009" data-link-type="extension" data-source-line="92" id="lnk12"><path codeLine="92" d="M1413.8678,270.0203 C1372.7278,313.5603 1326.78,362.1869 1277.02,414.8469" fill="none" id="Entity-backto-ElectricVehicle" style="stroke:#181818;stroke-width:1;"/><polygon fill="none" points="1426.23,256.9369,1409.5066,265.8995,1418.2289,274.141,1426.23,256.9369" style="stroke:#181818;stroke-width:1;"/></g><!--reverse link Entity to HeatPump--><g class="link" data-entity-1="ent0007" data-entity-2="ent0010" data-link-type="extension" data-source-line="93" id="lnk13"><path codeLine="93" d="M1479,274.9369 C1479,314.0169 1479,349.7269 1479,398.4069" fill="none" id="Entity-backto-HeatPump" style="stroke:#181818;stroke-width:1;"/><polygon fill="none" points="1479,256.9369,1473,274.9369,1485,274.9369,1479,256.9369" style="stroke:#181818;stroke-width:1;"/></g><!--reverse link Household to Battery--><g class="link" data-entity-1="ent0017" data-entity-2="ent0008" data-link-type="aggregation" data-source-line="136" id="lnk19"><path codeLine="136" d="M945.2919,264.2135 C977.6719,288.0635 1008.49,306.7069 1049,321.8669 C1300.8,416.0769 1398.07,302.3469 1649,398.8669 C1665.65,405.2669 1682.23,413.5769 1698.18,422.8469" fill="none" id="Household-backto-Battery" style="stroke:#181818;stroke-width:1;"/><polygon fill="none" points="935.63,257.0969,938.0888,263.8759,945.2919,264.2135,942.8332,257.4346,935.63,257.0969" style="stroke:#181818;stroke-width:1;"/></g><!--reverse link Household to ElectricVehicle--><g class="link" data-entity-1="ent0017" data-entity-2="ent0009" data-link-type="aggregation" data-source-line="137" id="lnk20"><path codeLine="137" d="M930.7189,265.5369 C973.0889,309.0769 1024.77,362.1869 1076.02,414.8469" fill="none" id="Household-backto-ElectricVehicle" style="stroke:#181818;stroke-width:1;"/><polygon fill="none" points="922.35,256.9369,923.6678,264.0265,930.7189,265.5369,929.4012,258.4472,922.35,256.9369" style="stroke:#181818;stroke-width:1;"/></g><!--reverse link Household to HeatPump--><g class="link" data-entity-1="ent0017" data-entity-2="ent0010" data-link-type="aggregation" data-source-line="138" id="lnk21"><path codeLine="138" d="M940.9239,264.6934 C987.4039,302.4534 1044.4,342.4669 1111,368.8669 C1193.74,401.6569 1226.48,365.5169 1309,398.8669 C1314.71,401.1669 1320.4,403.7069 1326.07,406.4169" fill="none" id="Household-backto-HeatPump" style="stroke:#181818;stroke-width:1;"/><polygon fill="none" points="931.61,257.1269,933.7448,264.0147,940.9239,264.6934,938.7891,257.8055,931.61,257.1269" style="stroke:#181818;stroke-width:1;"/></g><!--link Household to VariableRegistry--><g class="link" data-entity-1="ent0017" data-entity-2="ent0015" data-link-type="dependency" data-source-line="139" id="lnk22"><path codeLine="139" d="M872.91,256.9369 C878.27,317.8769 886.2243,408.4199 891.2843,465.9499" fill="none" id="Household-to-VariableRegistry" style="stroke:#181818;stroke-width:1;stroke-dasharray:7,7;"/><polygon fill="#181818" points="891.81,471.9269,895.0061,462.611,891.3719,466.9461,887.0368,463.3119,891.81,471.9269" style="stroke:#181818;stroke-width:1;"/><text fill="#000000" font-family="sans-serif" font-size="13" lengthAdjust="spacing" textLength="29.7832" x="883" y="364.9338">uses</text></g><!--link Household to Constraints--><g class="link" data-entity-1="ent0017" data-entity-2="ent0016" data-link-type="dependency" data-source-line="140" id="lnk23"><path codeLine="140" d="M770.7,257.1469 C711.17,293.7069 635.15,344.5969 575,398.8669 C556.23,415.8069 541.6421,431.6336 525.8121,450.8736" fill="none" id="Household-to-Constraints" style="stroke:#181818;stroke-width:1;stroke-dasharray:7,7;"/><polygon fill="#181818" points="522,455.5069,530.8071,451.0983,525.1768,451.6458,524.6293,446.0155,522,455.5069" style="stroke:#181818;stroke-width:1;"/><text fill="#000000" font-family="sans-serif" font-size="13" lengthAdjust="spacing" textLength="38.7397" x="628" y="364.9338">builds</text></g><!--link Household to OptimisationResult--><g class="link" data-entity-1="ent0017" data-entity-2="ent0018" data-link-type="dependency" data-source-line="141" id="lnk24"><path codeLine="141" d="M833.28,256.9369 C807.61,298.2469 774.9372,350.8109 743.3772,401.5909" fill="none" id="Household-to-OptimisationResult" style="stroke:#181818;stroke-width:1;stroke-dasharray:7,7;"/><polygon fill="#181818" points="740.21,406.6869,748.3581,401.1544,742.8493,402.4402,741.5634,396.9315,740.21,406.6869" style="stroke:#181818;stroke-width:1;"/><text fill="#000000" font-family="sans-serif" font-size="13" lengthAdjust="spacing" textLength="47.0361" x="770" y="364.9338">returns</text></g><!--link Household to ForecastTrajectory--><g class="link" data-entity-1="ent0017" data-entity-2="ent0004" data-link-type="dependency" data-source-line="142" id="lnk25"><path codeLine="142" d="M726.52,250.3769 C626.18,287.0869 489.41,340.7369 374,398.8669 C356.86,407.4969 344.4583,414.1406 327.1783,424.1006" fill="none" id="Household-to-ForecastTrajectory" style="stroke:#181818;stroke-width:1;stroke-dasharray:7,7;"/><polygon fill="#181818" points="321.98,427.0969,331.775,426.068,326.3119,424.6,327.78,419.137,321.98,427.0969" style="stroke:#181818;stroke-width:1;"/><text fill="#000000" font-family="sans-serif" font-size="13" lengthAdjust="spacing" textLength="35.3628" x="467" y="364.9338">takes</text></g><?plantuml-src jLVDZjis4BxxAOYSRDXE4oGdeotGBZPeJraaHYx1cg0ehiqkHIhaoB6pyNrxxJlq6VRGspv07sAVf4DPFvH56MtHwc18_6OuCz_ya0O9If1BBUnwVoML0J8d5uevHzw3BJWKLen6xbRgd5cM4UwX7m2iJ0eGFtEZtyilWhmu5NbZD9J8orS1b3D-ozQY1L-FHjKQUVR6MC6PWsVaRaJmAVSXzUgLty1La7-comMH6jhl51RaHXdMBitdBPfRoGLDYZtD1DCBebDcBTl711oaWxWJIftVePGOs68xgBeTKC5uqY6b4ekhWSXoQWeOKctmdlfX525_QTalWeEn-_yW0MUPYt8p4FkPkFfGwCgT0mQI7uXZMQx4k2nEDoDMhoUBID0XCIVr-Fpvzp6M5lNMaz4XAF5B3HAaS7M9iyI1PHmgkakuG_5TBN4WLgob0s77-38ZoqbK2FknQisZ67vx2DE4uPd4koUt0jLd98Nu5be0pStdsj3Esuem7MWafj2f6tinA33eVXtzo00zxqJ66RA2qPwMpDGPJgMMlLgQyWspQq4pjkj1gNHdKBzZ9dLlNTpSI2w5vlipTRkZ2OCLaAVxU_BnwVwtZYaak7c_RbIylK2fCe-oLSWToTKTJ5yUo7VbEv0fsU7lumEcfq_ZfSByOQjy41l9SMh_NtI2Ht0s63u4WSm45cD-CW7-9gDYMtFpOfZ1hj2_eAwHMjAZrmVozEllf0skJ_1FWi5LaUKXi-L8YJ9O8cLXnUTGIUq_655JL3YsNi_K1OMDi5blNR4iIHdj9zVaL00xcuLD7X3Sc6uPzeus59SVdcFSUGMF3pl_ay8t5uruy62Ra3__U7mOLrh-U-bZNi74QtLDL4xKRAvWHchwLd0T9gcQZzz-dS_haT9RF-cH7bwdk3ENt-POqDBXeM1qz_hnWLd94YNUbTEtEy8qtJBhkYqG7ZFDnDOi4tuM5nfmHbgcrwALeXJBKMB4b9Q27ObETLwqmpnqmvhFw8H2K-7nUBgoaISheQSiJQduDCQTPcJBrAIBI5rZoip8HauYZMCA9pP6fQ5ZoJ55YqwkZdC2Z_HOeewUOePeZYbQjCcAEUsCseenD8Sk4XVcyPrmXOeCqRvCwBChE1SE-KoCKK7J6c2ASkFwKm07eSCYmXCVRDJFyWI9TBkVWz7bJHwx1GrTdOQkJTKfD814JLUZBdeXR3DiJhglYyJIsfNe9BM5_4sgrsqBWh2BI8QzWCagf4fZOf5aOti9_5UZO-BHcnomMtJXy1S0?></g></svg>