<svg xmlns="http://www.w3.org/2000/svg" xmlns:xlink="http://www.w3.org/1999/xlink" contentStyleType="text/css" data-diagram-type="ACTIVITY" height="1119px" preserveAspectRatio="none" style="width:490px;height:1119px;background:#FFFFFF;" version="1.1" viewBox="0 0 490 1119" width="490px" zoomAndPan="magnify"><?plantuml 1.2026.3beta6?><defs/><g><g class="title" data-source-line="1"><text fill="#000000" font-family="sans-serif" font-size="14" font-weight="700" lengthAdjust="spacing" textLength="317.8164" x="85.3928" y="32.9951">EnergyPilot &#8212; MPC Rolling Horizon Loop</text></g><ellipse cx="229.801" cy="62.2969" fill="#222222" rx="10" ry="10" style="stroke:#222222;stroke-width:1;"/><rect fill="#F1F1F1" height="50.2656" rx="12.5" ry="12.5" style="stroke:#181818;stroke-width:0.5;" width="192.7896" x="133.4063" y="92.2969"/><text fill="#000000" font-family="sans-serif" font-size="13" lengthAdjust="spacing" textLength="91.4189" x="143.4063" y="114.3638">Initialise state</text><text fill="#000000" font-family="sans-serif" font-size="13" lengthAdjust="spacing" textLength="172.7896" x="143.4063" y="129.4966">(soc_bat, soc_ev, temp_in)</text><rect fill="#F1F1F1" height="50.2656" rx="12.5" ry="12.5" style="stroke:#181818;stroke-width:0.5;" width="292.6191" x="83.4915" y="206.5625"/><text fill="#000000" font-family="sans-serif" font-size="13" lengthAdjust="spacing" textLength="175.3477" x="93.4915" y="228.6294">Observe real values at t=0</text><text fill="#000000" font-family="sans-serif" font-size="13" lengthAdjust="spacing" textLength="272.6191" x="93.4915" y="243.7622">(price_buy, price_sell, pv, load, temp_out)</text><rect fill="#F1F1F1" height="65.3984" rx="12.5" ry="12.5" style="stroke:#181818;stroke-width:0.5;" width="287.0332" x="86.2844" y="276.8281"/><text fill="#000000" font-family="sans-serif" font-size="13" lengthAdjust="spacing" textLength="141.0767" x="96.2844" y="298.895">Build ForecastParams</text><text fill="#000000" font-family="sans-serif" font-size="13" lengthAdjust="spacing" textLength="216.1758" x="96.2844" y="314.0278">&#8212; t=0: real observations (std=0)</text><text fill="#000000" font-family="sans-serif" font-size="13" lengthAdjust="spacing" textLength="267.0332" x="96.2844" y="329.1606">&#8212; t&gt;0: distributions from forecast model</text><rect fill="#F1F1F1" height="50.2656" rx="12.5" ry="12.5" style="stroke:#181818;stroke-width:0.5;" width="194.7319" x="132.4351" y="362.2266"/><text fill="#000000" font-family="sans-serif" font-size="13" lengthAdjust="spacing" textLength="174.7319" x="142.4351" y="384.2935">Sample ForecastTrajectory</text><text fill="#000000" font-family="sans-serif" font-size="13" lengthAdjust="spacing" textLength="132.8564" x="142.4351" y="399.4263">over horizon [t, t+T]</text><rect fill="#F1F1F1" height="50.2656" rx="12.5" ry="12.5" style="stroke:#181818;stroke-width:0.5;" width="234.2397" x="112.6812" y="432.4922"/><text fill="#000000" font-family="sans-serif" font-size="13" lengthAdjust="spacing" textLength="133.269" x="122.6812" y="454.5591">Rebuild entities with</text><text fill="#000000" font-family="sans-serif" font-size="13" lengthAdjust="spacing" textLength="214.2397" x="122.6812" y="469.6919">current state as initial conditions</text><rect fill="#F1F1F1" height="141.0625" rx="12.5" ry="12.5" style="stroke:#181818;stroke-width:0.5;" width="427.6021" x="16" y="502.7578"/><text fill="#000000" font-family="sans-serif" font-size="13" lengthAdjust="spacing" textLength="100.6167" x="26" y="524.8247">Formulate MILP</text><text fill="#000000" font-family="sans-serif" font-size="13" lengthAdjust="spacing" textLength="182" x="26" y="539.9575">&#8212;&#8212;&#8212;&#8212;&#8212;&#8212;&#8212;&#8212;&#8212;&#8212;&#8212;&#8212;&#8212;&#8212;</text><text fill="#000000" font-family="sans-serif" font-size="13" lengthAdjust="spacing" textLength="273.749" x="26" y="555.0903">Variables: x_bat, x_ev, x_hp, p_buy, p_sell</text><text fill="#000000" font-family="sans-serif" font-size="13" lengthAdjust="spacing" textLength="224.7388" x="26" y="570.2231">States:    soc_bat, soc_ev, temp_in</text><text fill="#000000" font-family="sans-serif" font-size="13" lengthAdjust="spacing" textLength="338.1396" x="26" y="585.356">Objective: min &#931; price_buy&#183;p_buy &#8722; price_sell&#183;p_sell</text><text fill="#000000" font-family="sans-serif" font-size="13" lengthAdjust="spacing" textLength="407.6021" x="26" y="600.4888">Balance:   p_buy &#8722; p_sell = load + x_hp + x_ev + x_bat &#8722; gen</text><text fill="#000000" font-family="sans-serif" font-size="13" lengthAdjust="spacing" textLength="273.4634" x="26" y="615.6216">Dynamics:  SoC and temperature updates</text><text fill="#000000" font-family="sans-serif" font-size="13" lengthAdjust="spacing" textLength="226.7192" x="26" y="630.7544">Constraints: bounds + EV deadline</text><rect fill="#F1F1F1" height="35.1328" rx="12.5" ry="12.5" style="stroke:#181818;stroke-width:0.5;" width="238.8228" x="110.3896" y="663.8203"/><text fill="#000000" font-family="sans-serif" font-size="13" lengthAdjust="spacing" textLength="218.8228" x="120.3896" y="685.8872">Solve MILP (HiGHS via scipy.milp)</text><polygon fill="#F1F1F1" points="200.9573,718.9531,258.6448,718.9531,270.6448,730.9531,258.6448,742.9531,200.9573,742.9531,188.9573,730.9531,200.9573,718.9531" style="stroke:#181818;stroke-width:0.5;"/><text fill="#000000" font-family="sans-serif" font-size="13" lengthAdjust="spacing" textLength="57.6875" x="200.9573" y="735.4536">feasible?</text><text fill="#000000" font-family="sans-serif" font-size="13" lengthAdjust="spacing" textLength="22.4644" x="166.4929" y="727.8872">yes</text><text fill="#000000" font-family="sans-serif" font-size="13" lengthAdjust="spacing" textLength="16.1929" x="270.6448" y="727.8872">no</text><rect fill="#F1F1F1" height="50.2656" rx="12.5" ry="12.5" style="stroke:#181818;stroke-width:0.5;" width="212.353" x="38.304" y="752.9531"/><text fill="#000000" font-family="sans-serif" font-size="13" lengthAdjust="spacing" textLength="192.353" x="48.304" y="775.02">Apply first timestep decisions</text><text fill="#000000" font-family="sans-serif" font-size="13" lengthAdjust="spacing" textLength="167.8511" x="48.304" y="790.1528">x_bat[0], x_ev[0], x_hp[0]</text><rect fill="#F1F1F1" height="50.2656" rx="12.5" ry="12.5" style="stroke:#181818;stroke-width:0.5;" width="182.646" x="53.1575" y="823.2188"/><text fill="#000000" font-family="sans-serif" font-size="13" lengthAdjust="spacing" textLength="93.2534" x="63.1575" y="845.2856">Advance state</text><text fill="#000000" font-family="sans-serif" font-size="13" lengthAdjust="spacing" textLength="162.646" x="63.1575" y="860.4185">soc_bat, soc_ev, temp_in</text><rect fill="#F1F1F1" height="50.2656" rx="12.5" ry="12.5" style="stroke:#181818;stroke-width:0.5;" width="88.9292" x="270.657" y="752.9531"/><text fill="#000000" font-family="sans-serif" font-size="13" lengthAdjust="spacing" textLength="68.9292" x="280.657" y="775.02">Log failure</text><text fill="#000000" font-family="sans-serif" font-size="13" lengthAdjust="spacing" textLength="68.8403" x="280.657" y="790.1528">keep state</text><polygon fill="#F1F1F1" points="229.801,879.4844,241.801,891.4844,229.801,903.4844,217.801,891.4844,229.801,879.4844" style="stroke:#181818;stroke-width:0.5;"/><rect fill="#F1F1F1" height="35.1328" rx="12.5" ry="12.5" style="stroke:#181818;stroke-width:0.5;" width="76.7798" x="191.4111" y="923.4844"/><text fill="#000000" font-family="sans-serif" font-size="13" lengthAdjust="spacing" textLength="56.7798" x="201.4111" y="945.5513">t = t + 1</text><polygon fill="#F1F1F1" points="229.801,162.5625,241.801,174.5625,229.801,186.5625,217.801,174.5625,229.801,162.5625" style="stroke:#181818;stroke-width:0.5;"/><polygon fill="#F1F1F1" points="195.5903,978.6172,264.0117,978.6172,276.0117,990.6172,264.0117,1002.6172,195.5903,1002.6172,183.5903,990.6172,195.5903,978.6172" style="stroke:#181818;stroke-width:0.5;"/><text fill="#000000" font-family="sans-serif" font-size="13" lengthAdjust="spacing" textLength="68.4214" x="195.5903" y="995.1177">t &lt; T_total</text><rect fill="#F1F1F1" height="35.1328" rx="12.5" ry="12.5" style="stroke:#181818;stroke-width:0.5;" width="177.5361" x="141.033" y="1022.6172"/><text fill="#000000" font-family="sans-serif" font-size="13" lengthAdjust="spacing" textLength="157.5361" x="151.033" y="1044.6841">Output results and plots</text><ellipse cx="229.801" cy="1088.75" fill="none" rx="11" ry="11" style="stroke:#222222;stroke-width:1;"/><ellipse cx="229.801" cy="1088.75" fill="#222222" rx="6" ry="6" style="stroke:#222222;stroke-width:1;"/><line style="stroke:#181818;stroke-width:1;" x1="229.801" x2="229.801" y1="72.2969" y2="92.2969"/><polygon fill="#181818" points="225.801,82.2969,229.801,92.2969,233.801,82.2969,229.801,86.2969" style="stroke:#181818;stroke-width:1;"/><line style="stroke:#181818;stroke-width:1;" x1="229.801" x2="229.801" y1="256.8281" y2="276.8281"/><polygon fill="#181818" points="225.801,266.8281,229.801,276.8281,233.801,266.8281,229.801,270.8281" style="stroke:#181818;stroke-width:1;"/><line style="stroke:#181818;stroke-width:1;" x1="229.801" x2="229.801" y1="342.2266" y2="362.2266"/><polygon fill="#181818" points="225.801,352.2266,229.801,362.2266,233.801,352.2266,229.801,356.2266" style="stroke:#181818;stroke-width:1;"/><line style="stroke:#181818;stroke-width:1;" x1="229.801" x2="229.801" y1="412.4922" y2="432.4922"/><polygon fill="#181818" points="225.801,422.4922,229.801,432.4922,233.801,422.4922,229.801,426.4922" style="stroke:#181818;stroke-width:1;"/><line style="stroke:#181818;stroke-width:1;" x1="229.801" x2="229.801" y1="482.7578" y2="502.7578"/><polygon fill="#181818" points="225.801,492.7578,229.801,502.7578,233.801,492.7578,229.801,496.7578" style="stroke:#181818;stroke-width:1;"/><line style="stroke:#181818;stroke-width:1;" x1="229.801" x2="229.801" y1="643.8203" y2="663.8203"/><polygon fill="#181818" points="225.801,653.8203,229.801,663.8203,233.801,653.8203,229.801,657.8203" style="stroke:#181818;stroke-width:1;"/><line style="stroke:#181818;stroke-width:1;" x1="144.4805" x2="144.4805" y1="803.2188" y2="823.2188"/><polygon fill="#181818" points="140.4805,813.2188,144.4805,823.2188,148.4805,813.2188,144.4805,817.2188" style="stroke:#181818;stroke-width:1;"/><line style="stroke:#181818;stroke-width:1;" x1="188.9573" x2="144.4805" y1="730.9531" y2="730.9531"/><line style="stroke:#181818;stroke-width:1;" x1="144.4805" x2="144.4805" y1="730.9531" y2="752.9531"/><polygon fill="#181818" points="140.4805,742.9531,144.4805,752.9531,148.4805,742.9531,144.4805,746.9531" style="stroke:#181818;stroke-width:1;"/><line style="stroke:#181818;stroke-width:1;" x1="270.6448" x2="315.1216" y1="730.9531" y2="730.9531"/><line style="stroke:#181818;stroke-width:1;" x1="315.1216" x2="315.1216" y1="730.9531" y2="752.9531"/><polygon fill="#181818" points="311.1216,742.9531,315.1216,752.9531,319.1216,742.9531,315.1216,746.9531" style="stroke:#181818;stroke-width:1;"/><line style="stroke:#181818;stroke-width:1;" x1="144.4805" x2="144.4805" y1="873.4844" y2="891.4844"/><line style="stroke:#181818;stroke-width:1;" x1="144.4805" x2="217.801" y1="891.4844" y2="891.4844"/><polygon fill="#181818" points="207.801,887.4844,217.801,891.4844,207.801,895.4844,211.801,891.4844" style="stroke:#181818;stroke-width:1;"/><line style="stroke:#181818;stroke-width:1;" x1="315.1216" x2="315.1216" y1="803.2188" y2="891.4844"/><line style="stroke:#181818;stroke-width:1;" x1="315.1216" x2="241.801" y1="891.4844" y2="891.4844"/><polygon fill="#181818" points="251.801,887.4844,241.801,891.4844,251.801,895.4844,247.801,891.4844" style="stroke:#181818;stroke-width:1;"/><line style="stroke:#181818;stroke-width:1;" x1="229.801" x2="229.801" y1="698.9531" y2="718.9531"/><polygon fill="#181818" points="225.801,708.9531,229.801,718.9531,233.801,708.9531,229.801,712.9531" style="stroke:#181818;stroke-width:1;"/><line style="stroke:#181818;stroke-width:1;" x1="229.801" x2="229.801" y1="903.4844" y2="923.4844"/><polygon fill="#181818" points="225.801,913.4844,229.801,923.4844,233.801,913.4844,229.801,917.4844" style="stroke:#181818;stroke-width:1;"/><line style="stroke:#181818;stroke-width:1;" x1="229.801" x2="229.801" y1="186.5625" y2="206.5625"/><polygon fill="#181818" points="225.801,196.5625,229.801,206.5625,233.801,196.5625,229.801,200.5625" style="stroke:#181818;stroke-width:1;"/><line style="stroke:#181818;stroke-width:1;" x1="276.0117" x2="455.6021" y1="990.6172" y2="990.6172"/><polygon fill="#181818" points="451.6021,592.5898,455.6021,582.5898,459.6021,592.5898,455.6021,588.5898" style="stroke:#181818;stroke-width:1;"/><line style="stroke:#181818;stroke-width:1;" x1="455.6021" x2="455.6021" y1="174.5625" y2="990.6172"/><line style="stroke:#181818;stroke-width:1;" x1="455.6021" x2="241.801" y1="174.5625" y2="174.5625"/><polygon fill="#181818" points="251.801,170.5625,241.801,174.5625,251.801,178.5625,247.801,174.5625" style="stroke:#181818;stroke-width:1;"/><line style="stroke:#181818;stroke-width:1;" x1="229.801" x2="229.801" y1="958.6172" y2="978.6172"/><polygon fill="#181818" points="225.801,968.6172,229.801,978.6172,233.801,968.6172,229.801,972.6172" style="stroke:#181818;stroke-width:1;"/><line style="stroke:#181818;stroke-width:1;" x1="229.801" x2="229.801" y1="142.5625" y2="162.5625"/><polygon fill="#181818" points="225.801,152.5625,229.801,162.5625,233.801,152.5625,229.801,156.5625" style="stroke:#181818;stroke-width:1;"/><line style="stroke:#181818;stroke-width:1;" x1="229.801" x2="229.801" y1="1002.6172" y2="1022.6172"/><polygon fill="#181818" points="225.801,1012.6172,229.801,1022.6172,233.801,1012.6172,229.801,1016.6172" style="stroke:#181818;stroke-width:1;"/><line style="stroke:#181818;stroke-width:1;" x1="229.801" x2="229.801" y1="1057.75" y2="1077.75"/><polygon fill="#181818" points="225.801,1067.75,229.801,1077.75,233.801,1067.75,229.801,1071.75" style="stroke:#181818;stroke-width:1;"/><?plantuml-src ZLJ1Jjj04BtdA-QO25I1UWkbLQ5Ga4141771A1hRusJAUdUrEpQafnvxhle7_OZU-m7z2BwauxM3Sa6gPSchtV6RD-_DhB0OWXDBORcUiN42pzz-mkNi6AwTCMoNSEO2VtKMBfpper5yOEinO0qbLTWOENLMvloLOF-jdWe66OscvvQ5qN0aq2sXp8wZAnOvoYvq2sftGQZs2xQJWz4ea2UK4UWplSeZXPOW41feqJGK0GNaS4z1VE225dcpteL-6SaONIkSSLWEeAwH3ZN17JLiIZXrWGgCCkkOnynsDIhYjC_YKaeKTZR2E4fvk3SPOjvhJCbH0kTDVru5LqCru47jIZARN7EilOgvINOJy0iLui8wiwwb0Aj1oJjLGNPkxZV_NLEUM98LbKthVMHPPRPeGj2jNa702Doh2eMp9ISs6mHDMJUc2xiylvWbxl_vPlOM0sDkA4xXgNVeAVdpj5XvbNPGEocTsNd7HIFrUStGp5xbNTtSqXHgjl3t5xpuzkTt0eJdxp-s7EnsU_mZD6WBwX9i1QP3E4mUmqvYbZxKfe-oI75BqkIVrXPhBZgEStSCQCj4Z09A4mWQNtOLPFPOvPE0R4L3SzVOCYhOoQtsDPRQ-FJYgZDjhokCp_ZpsHnQHeW5-_MRcetVj1fNCAu88wkM7oOWAx8mNbESfDC4zT5xiuQAWtQES4rHo6k-WcDdPcPJANTxzxq5msBbTN6m1LAsdKIRmNhDXluFCZg2O-ksI5ou9LJ8HjN8x0CfWuGqn6jdLKFXeegBQhB_Cg7mk69jyB70ExXPY1Cq4vtsgqPy8pfBKU-3c2JtUfDqtHd5-Ny0?></g></svg>