<svg xmlns="http://www.w3.org/2000/svg" xmlns:xlink="http://www.w3.org/1999/xlink" contentStyleType="text/css" data-diagram-type="DESCRIPTION" height="470px" preserveAspectRatio="none" style="width:995px;height:470px;background:#FFFFFF;" version="1.1" viewBox="0 0 995 470" width="995px" zoomAndPan="magnify"><?plantuml 1.2026.3beta6?><defs/><g><g class="title" data-source-line="1"><text fill="#000000" font-family="sans-serif" font-size="14" font-weight="700" lengthAdjust="spacing" textLength="311.7256" x="338.1372" y="22.9951">EnergyPilot - Optimization Components</text></g><!--cluster grid--><g class="cluster" data-qualified-name="grid" data-source-line="7" id="ent0002"><rect fill="#ADD8E6" height="111.94" rx="2.5" ry="2.5" style="stroke:#181818;stroke-width:1;" width="328" x="119" y="344.1069"/><text fill="#000000" font-family="sans-serif" font-size="12" font-weight="700" lengthAdjust="spacing" textLength="89.1328" x="238.4336" y="357.2455">External Grid</text></g><!--cluster house--><g class="cluster" data-qualified-name="house" data-source-line="12" id="ent0005"><rect fill="#FFFFE0" height="109.91" rx="2.5" ry="2.5" style="stroke:#181818;stroke-width:1;" width="974" x="7" y="44.2969"/><text fill="#000000" font-family="sans-serif" font-size="12" font-weight="700" lengthAdjust="spacing" textLength="71.6016" x="458.1992" y="57.4355">Household</text></g><!--entity buy--><g class="entity" data-qualified-name="grid.buy" data-source-line="8" id="ent0003"><rect fill="#F1F1F1" height="47.9375" rx="2.5" ry="2.5" style="stroke:#181818;stroke-width:0.5;" width="113.7617" x="143.12" y="384.1069"/><text fill="#000000" font-family="sans-serif" font-size="12" lengthAdjust="spacing" textLength="50.7012" x="153.12" y="405.2455">p_buy^t</text><text fill="#000000" font-family="sans-serif" font-size="12" lengthAdjust="spacing" textLength="93.7617" x="153.12" y="419.2143">[&#8364; price_buy^t]</text></g><!--entity sell--><g class="entity" data-qualified-name="grid.sell" data-source-line="9" id="ent0004"><rect fill="#F1F1F1" height="47.9375" rx="2.5" ry="2.5" style="stroke:#181818;stroke-width:0.5;" width="111.7402" x="292.13" y="384.1069"/><text fill="#000000" font-family="sans-serif" font-size="12" lengthAdjust="spacing" textLength="48.6797" x="302.13" y="405.2455">p_sell^t</text><text fill="#000000" font-family="sans-serif" font-size="12" lengthAdjust="spacing" textLength="91.7402" x="302.13" y="419.2143">[&#8364; price_sell^t]</text></g><!--entity pv--><g class="entity" data-qualified-name="house.pv" data-source-line="13" id="ent0006"><rect fill="#FFD700" height="47.9375" rx="2.5" ry="2.5" style="stroke:#181818;stroke-width:0.5;" width="119.334" x="23.33" y="83.2769"/><text fill="#000000" font-family="sans-serif" font-size="12" lengthAdjust="spacing" textLength="15.4453" x="33.33" y="104.4155">PV</text><text fill="#000000" font-family="sans-serif" font-size="12" lengthAdjust="spacing" textLength="99.334" x="33.33" y="118.3843">gen^t (forecast)</text></g><!--entity load--><g class="entity" data-qualified-name="house.load" data-source-line="14" id="ent0007"><rect fill="#FFC0CB" height="47.9375" rx="2.5" ry="2.5" style="stroke:#181818;stroke-width:0.5;" width="122.375" x="177.81" y="83.2769"/><text fill="#000000" font-family="sans-serif" font-size="12" lengthAdjust="spacing" textLength="62.0332" x="187.81" y="104.4155">Base Load</text><text fill="#000000" font-family="sans-serif" font-size="12" lengthAdjust="spacing" textLength="102.375" x="187.81" y="118.3843">load^t (forecast)</text></g><!--entity bat--><g class="entity" data-qualified-name="house.bat" data-source-line="16" id="ent0008"><rect fill="#90EE90" height="61.9063" rx="2.5" ry="2.5" style="stroke:#181818;stroke-width:0.5;" width="208.3613" x="334.82" y="76.2969"/><text fill="#000000" font-family="sans-serif" font-size="12" lengthAdjust="spacing" textLength="44.4141" x="344.82" y="97.4355">Battery</text><text fill="#000000" font-family="sans-serif" font-size="12" lengthAdjust="spacing" textLength="188.3613" x="344.82" y="111.4043">x_bat^t &#8712; [&#8722;dis_max, ch_max]</text><text fill="#000000" font-family="sans-serif" font-size="12" lengthAdjust="spacing" textLength="166.0898" x="344.82" y="125.373">soc_bat^t &#8712; [soc_min, cap]</text></g><!--entity ev--><g class="entity" data-qualified-name="house.ev" data-source-line="17" id="ent0009"><rect fill="#90EE90" height="61.9063" rx="2.5" ry="2.5" style="stroke:#181818;stroke-width:0.5;" width="179.9023" x="578.05" y="76.2969"/><text fill="#000000" font-family="sans-serif" font-size="12" lengthAdjust="spacing" textLength="92.127" x="588.05" y="97.4355">Electric Vehicle</text><text fill="#000000" font-family="sans-serif" font-size="12" lengthAdjust="spacing" textLength="131.4023" x="588.05" y="111.4043">x_ev^t &#8712; [0, ch_max]</text><text fill="#000000" font-family="sans-serif" font-size="12" lengthAdjust="spacing" textLength="159.9023" x="588.05" y="125.373">soc_ev^{T*} &#8805; target_soc</text></g><!--entity hp--><g class="entity" data-qualified-name="house.hp" data-source-line="18" id="ent0010"><rect fill="#FFA500" height="61.9063" rx="2.5" ry="2.5" style="stroke:#181818;stroke-width:0.5;" width="171.4121" x="793.29" y="76.2969"/><text fill="#000000" font-family="sans-serif" font-size="12" lengthAdjust="spacing" textLength="66.4277" x="803.29" y="97.4355">Heat Pump</text><text fill="#000000" font-family="sans-serif" font-size="12" lengthAdjust="spacing" textLength="125.5547" x="803.29" y="111.4043">x_hp^t &#8712; [0, p_max]</text><text fill="#000000" font-family="sans-serif" font-size="12" lengthAdjust="spacing" textLength="151.4121" x="803.29" y="125.373">temp^t &#8712; [t_min, t_max]</text></g><!--entity balance--><g class="entity" data-qualified-name="balance" data-source-line="21" id="ent0011"><rect fill="#E6E6FA" height="61.9063" rx="2.5" ry="2.5" style="stroke:#181818;stroke-width:0.5;" width="301.4727" x="288.26" y="214.2069"/><text fill="#000000" font-family="sans-serif" font-size="12" lengthAdjust="spacing" textLength="93.8965" x="298.26" y="235.3455">Energy Balance</text><text fill="#000000" font-family="sans-serif" font-size="12" lengthAdjust="spacing" textLength="130.9336" x="298.26" y="249.3143">p_buy^t &#8722; p_sell^t =</text><text fill="#000000" font-family="sans-serif" font-size="12" lengthAdjust="spacing" textLength="281.4727" x="298.26" y="263.283">load^t + x_hp^t + x_ev^t + x_bat^t &#8722; gen^t</text></g><!--link grid to balance--><g class="link" data-entity-1="ent0002" data-entity-2="ent0011" data-link-type="dependency" data-source-line="23" id="lnk12"><path d="M442.9192,343.9326 C442.9612,342.5402 442.9998,341.1412 443.0348,339.7375 C443.315,328.5081 443.3625,316.9794 443,306.1069 C442.68,296.4169 442.4687,291.8329 441.8187,282.3129" fill="none" id="grid-to-balance" style="stroke:#181818;stroke-width:1;"/><polygon fill="#181818" points="441.41,276.3269,438.0324,285.5784,441.7506,281.3153,446.0138,285.0335,441.41,276.3269" style="stroke:#181818;stroke-width:1;"/><text fill="#000000" font-family="sans-serif" font-size="11" lengthAdjust="spacing" textLength="46.4761" x="444" y="317.3173">p_buy^t</text></g><!--link balance to grid--><g class="link" data-entity-1="ent0011" data-entity-2="ent0002" data-link-type="dependency" data-source-line="24" id="lnk13"><path d="M406.87,276.4869 C399.59,285.2669 392.88,295.4069 389,306.1069 C386.88,311.9569 385.19,315.1869 389,320.1069 C397.71,331.3569 410.02,317.9669 420,328.1069 C423.065,331.2231 425.6663,334.7427 427.8711,338.5221 C428.4224,339.467 428.9488,340.4281 429.4515,341.4032 C429.7029,341.8908 429.9483,342.3818 430.188,342.8761 C430.3078,343.1232 430.4261,343.3712 430.5431,343.6199 C430.6016,343.7442 428.1388,338.4241 428.1965,338.5488" fill="none" id="balance-to-grid" style="stroke:#181818;stroke-width:1;"/><polygon fill="#181818" points="430.7174,343.9935,430.5659,334.1458,428.6167,339.4563,423.3063,337.507,430.7174,343.9935" style="stroke:#181818;stroke-width:1;"/><text fill="#000000" font-family="sans-serif" font-size="11" lengthAdjust="spacing" textLength="44.623" x="390" y="317.3173">p_sell^t</text></g><!--link pv to balance--><g class="link" data-entity-1="ent0006" data-entity-2="ent0011" data-link-type="dependency" data-source-line="25" id="lnk14"><path d="M111.59,131.6469 C125.53,142.1469 142.94,153.9969 160,162.2069 C204.81,183.7669 250.6571,199.2675 297.2271,212.1475" fill="none" id="pv-to-balance" style="stroke:#181818;stroke-width:1;"/><polygon fill="#181818" points="303.01,213.7469,295.4019,207.4925,298.1909,212.414,293.2694,215.2031,303.01,213.7469" style="stroke:#181818;stroke-width:1;"/><text fill="#000000" font-family="sans-serif" font-size="11" lengthAdjust="spacing" textLength="34.2515" x="212" y="181.4173">gen^t</text></g><!--link load to balance--><g class="link" data-entity-1="ent0007" data-entity-2="ent0011" data-link-type="dependency" data-source-line="26" id="lnk15"><path d="M272.33,131.4569 C286.13,141.0169 302.31,152.1869 317,162.2069 C342.19,179.3769 365.4644,195.0387 388.4344,210.4187" fill="none" id="load-to-balance" style="stroke:#181818;stroke-width:1;"/><polygon fill="#181818" points="393.42,213.7569,388.1671,205.4258,389.2653,210.975,383.7161,212.0733,393.42,213.7569" style="stroke:#181818;stroke-width:1;"/><text fill="#000000" font-family="sans-serif" font-size="11" lengthAdjust="spacing" textLength="37.0391" x="348" y="181.4173">load^t</text></g><!--link bat to balance--><g class="link" data-entity-1="ent0008" data-entity-2="ent0011" data-link-type="dependency" data-source-line="27" id="lnk16"><path d="M439,138.4169 C439,160.9369 439,185.5769 439,208.0769" fill="none" id="bat-to-balance" style="stroke:#181818;stroke-width:1;"/><polygon fill="#181818" points="439,214.0769,443,205.0769,439,209.0769,435,205.0769,439,214.0769" style="stroke:#181818;stroke-width:1;"/><text fill="#000000" font-family="sans-serif" font-size="11" lengthAdjust="spacing" textLength="43.5757" x="440" y="181.4173">x_bat^t</text></g><!--link ev to balance--><g class="link" data-entity-1="ent0009" data-entity-2="ent0011" data-link-type="dependency" data-source-line="28" id="lnk17"><path d="M616.89,138.5769 C579.06,161.0369 532.91,188.425 495.11,210.855" fill="none" id="ev-to-balance" style="stroke:#181818;stroke-width:1;"/><polygon fill="#181818" points="489.95,213.9169,499.7312,212.7641,494.25,211.3653,495.6487,205.8841,489.95,213.9169" style="stroke:#181818;stroke-width:1;"/><text fill="#000000" font-family="sans-serif" font-size="11" lengthAdjust="spacing" textLength="38.8169" x="561" y="181.4173">x_ev^t</text></g><!--link hp to balance--><g class="link" data-entity-1="ent0010" data-entity-2="ent0011" data-link-type="dependency" data-source-line="29" id="lnk18"><path d="M826.41,138.6369 C810.28,147.0969 792.24,155.7369 775,162.2069 C715.97,184.3469 654.6926,200.7949 596.0326,214.0449" fill="none" id="hp-to-balance" style="stroke:#181818;stroke-width:1;"/><polygon fill="#181818" points="590.18,215.3669,599.8401,217.2856,595.0571,214.2652,598.0775,209.4822,590.18,215.3669" style="stroke:#181818;stroke-width:1;"/><text fill="#000000" font-family="sans-serif" font-size="11" lengthAdjust="spacing" textLength="39.4937" x="749" y="181.4173">x_hp^t</text></g><?plantuml-src VLBDJjj04BxlKup8fIsDLDeRKZcaIiC1YKYja2e2qM8FzehrxcezCGc8Iq_XcdVehK-L9-disWcEBTK7UppVVFFD7odI26E3FbjDbRO4GxXqf0hr94bP0zziuQn1GwKGvOCoJdfPG8htSg7fkpNqGpqXd7nfWHuJaYRJ-0P_Ri7IU_lu1fq8iIV0qNX9w8tKCF4gFG9PGiO632vKbjD8Bn2U1V3JehZvtM9rIpDplVtz5vnN2TQUcyXdiyyeKUiEfNRLd62BbuF2pksYnDpgkgWy_3LL_U9W-zYlQterCncQMu9tzvRzigJtaUmg64muKvSmafppmifqPZI_-yJWXS5KcGVHvn8FRZKpo_cT9APkrskutgutgIhdXLn-X2GFtvkPAMtIZWc_XJ8S85qpCKbDQnEFQBfIOyqsZmokC5U9ng29rIxTfuuI8yy_Fxp0zlKFaFGPqfpTKGUh_ycS8vSnNHGkvCzTAxzhqXCMUpVLFL24wXKv65nwJeQTJTR73YEffKcu-kP-ECy6TfS1N_SxE8P6FXYnps3i1hY1kE9cRZ4ZDoKhD2bw8UBn3eTdU-mK6ZcnymGqXftkrGLVo24fYeYu_qEWBbA4bHq2JOa2gnuGcX0ydgu_TFaF?></g></svg>