<svg xmlns="http://www.w3.org/2000/svg" xmlns:xlink="http://www.w3.org/1999/xlink" contentStyleType="text/css" data-diagram-type="CLASS" height="622px" preserveAspectRatio="none" style="width:290px;height:622px;background:#FFFFFF;" version="1.1" viewBox="0 0 290 622" width="290px" zoomAndPan="magnify"><title>EnergyPilot &#8212; Package Dependencies</title><defs/><g><g class="title" data-source-line="1"><text fill="#000000" font-family="sans-serif" font-size="14" font-weight="bold" lengthAdjust="spacing" textLength="262.205" x="10" y="24.9659">EnergyPilot &#8212; Package Dependencies</text></g><!--cluster interfaces--><g class="cluster" data-entity="interfaces" data-source-line="8" data-uid="ent0002" id="cluster_interfaces"><rect fill="#FAFAFA" height="123.41" rx="2.5" ry="2.5" style="stroke:#AAAAAA;stroke-width:1.5;" width="151" x="85.2423" y="401.3079"/><text fill="#000000" font-family="sans-serif" font-size="13" font-weight="bold" lengthAdjust="spacing" textLength="65.442" x="128.0213" y="417.2049">interfaces</text></g><!--cluster control--><g class="cluster" data-entity="control" data-source-line="19" data-uid="ent0006" id="cluster_control"><rect fill="#FAFAFA" height="238.82" rx="2.5" ry="2.5" style="stroke:#AAAAAA;stroke-width:1.5;" width="119" x="57.2423" y="47.0679"/><text fill="#000000" font-family="sans-serif" font-size="13" font-weight="bold" lengthAdjust="spacing" textLength="46.826" x="93.3293" y="62.9649">control</text></g><rect fill="#FAFAFA" height="55.412" rx="2.5" ry="2.5" style="stroke:#AAAAAA;stroke-width:0.5;" width="80.554" x="108.9623" y="445.3079"/><text fill="#000000" font-family="sans-serif" font-size="13" font-weight="bold" lengthAdjust="spacing" textLength="60.554" x="118.9623" y="461.2049">synthetic</text><rect fill="#FAFAFA" height="55.412" rx="2.5" ry="2.5" style="stroke:#AAAAAA;stroke-width:0.5;" width="94.035" x="106.2223" y="321.8879"/><text fill="#000000" font-family="sans-serif" font-size="13" font-weight="bold" lengthAdjust="spacing" textLength="74.035" x="116.2223" y="337.7849">forecasting</text><rect fill="#FAFAFA" height="55.412" rx="2.5" ry="2.5" style="stroke:#AAAAAA;stroke-width:0.5;" width="48.314" x="125.0823" y="560.7179"/><text fill="#000000" font-family="sans-serif" font-size="13" font-weight="bold" lengthAdjust="spacing" textLength="28.314" x="135.0823" y="576.6149">core</text><rect fill="#FAFAFA" height="55.412" rx="2.5" ry="2.5" style="stroke:#AAAAAA;stroke-width:0.5;" width="48.925" x="80.7823" y="206.4779"/><text fill="#000000" font-family="sans-serif" font-size="13" font-weight="bold" lengthAdjust="spacing" textLength="28.925" x="90.7823" y="222.3749">milp</text><rect fill="#FAFAFA" height="55.412" rx="2.5" ry="2.5" style="stroke:#AAAAAA;stroke-width:0.5;" width="47.677" x="81.4023" y="91.0679"/><text fill="#000000" font-family="sans-serif" font-size="13" font-weight="bold" lengthAdjust="spacing" textLength="27.677" x="91.4023" y="106.9649">mpc</text><!--link synthetic to core--><g class="link" data-entity-1="synthetic" data-entity-2="core" data-source-line="26" data-uid="lnk9" id="link_synthetic_core"><path codeLine="26" d="M149.2423,501.1779 C149.2423,519.1279 149.2423,536.5679 149.2423,554.4779" fill="none" id="synthetic-to-core" style="stroke:#181818;stroke-width:1;stroke-dasharray:7,7;"/><polygon fill="#181818" points="149.2423,560.4779,153.2423,551.4779,149.2423,555.4779,145.2423,551.4779,149.2423,560.4779" style="stroke:#181818;stroke-width:1;"/></g><!--link forecasting to interfaces--><g class="link" data-entity-1="forecasting" data-entity-2="interfaces" data-source-line="27" data-uid="lnk10" id="link_forecasting_interfaces"><path codeLine="27" d="M198.9023,377.7479 C201.2323,380.1179 203.3723,382.6379 205.2423,385.3079 C207.8598,389.0529 210.1529,393.086 212.1617,397.2912 C212.6639,398.3425 213.1483,399.4045 213.6155,400.4755 C213.7324,400.7432 211.4938,395.4927 211.6085,395.7615" fill="none" id="forecasting-to-interfaces" style="stroke:#181818;stroke-width:1;stroke-dasharray:7,7;"/><polygon fill="#181818" points="213.9628,401.2803,214.1105,391.4326,212.0009,396.6813,206.7521,394.5717,213.9628,401.2803" style="stroke:#181818;stroke-width:1;"/></g><!--link milp to forecasting--><g class="link" data-entity-1="milp" data-entity-2="forecasting" data-source-line="28" data-uid="lnk11" id="link_milp_forecasting"><path codeLine="28" d="M116.7423,262.3479 C124.3423,280.3079 131.9238,298.2224 139.5038,316.1324" fill="none" id="milp-to-forecasting" style="stroke:#181818;stroke-width:1;stroke-dasharray:7,7;"/><polygon fill="#181818" points="141.8423,321.6579,142.0182,311.8106,139.8935,317.0533,134.6508,314.9287,141.8423,321.6579" style="stroke:#181818;stroke-width:1;"/></g><!--link control to interfaces--><g class="link" data-entity-1="control" data-entity-2="interfaces" data-source-line="29" data-uid="lnk12" id="link_control_interfaces"><path codeLine="29" d="M176.3979,151.1819 C176.6704,152.0575 176.9467,152.9482 177.2267,153.8535 C178.3468,157.4747 179.5259,161.3297 180.751,165.3912 C183.2011,173.5143 185.8351,182.4635 188.5485,192.0204 C199.4023,230.2479 211.5273,278.1979 218.2423,321.8879 C220.6023,337.2379 222.2973,353.5623 223.509,369.5789 C224.1149,377.5871 224.5999,385.5185 224.9868,393.2126 C225.0836,395.1361 225.1742,397.0448 225.259,398.9362 C225.2802,399.409 225.3011,399.8808 225.3216,400.3514 C225.3318,400.5867 225.0849,394.8273 225.0949,395.062" fill="none" id="control-to-interfaces" style="stroke:#181818;stroke-width:1;stroke-dasharray:7,7;"/><polygon fill="#181818" points="225.352,401.0565,228.9627,391.8934,225.1378,396.0611,220.9701,392.2362,225.352,401.0565" style="stroke:#181818;stroke-width:1;"/></g><!--link mpc to milp--><g class="link" data-entity-1="mpc" data-entity-2="milp" data-source-line="30" data-uid="lnk13" id="link_mpc_milp"><path codeLine="30" d="M105.2423,146.9379 C105.2423,164.8979 105.2423,182.3279 105.2423,200.2379" fill="none" id="mpc-to-milp" style="stroke:#181818;stroke-width:1;stroke-dasharray:7,7;"/><polygon fill="#181818" points="105.2423,206.2379,109.2423,197.2379,105.2423,201.2379,101.2423,197.2379,105.2423,206.2379" style="stroke:#181818;stroke-width:1;"/></g><!--link mpc to forecasting--><g class="link" data-entity-1="mpc" data-entity-2="forecasting" data-source-line="31" data-uid="lnk14" id="link_mpc_forecasting"><path codeLine="31" d="M121.8923,146.7879 C131.1823,163.3679 141.9323,185.3979 147.2423,206.4779 C157.0723,245.5179 157.1186,286.4657 155.6386,315.4157" fill="none" id="mpc-to-forecasting" style="stroke:#181818;stroke-width:1;stroke-dasharray:7,7;"/><polygon fill="#181818" points="155.3323,321.4079,159.7866,312.6239,155.5876,316.4144,151.797,312.2154,155.3323,321.4079" style="stroke:#181818;stroke-width:1;"/></g><!--SRC=[ROzDQWCn38NtEeL8ze7IVI7zoJgG4nYFueeuih7LnRG4SeYUi2UfFPac3gvcCQ3lFRrdPVM4RqB9ZLlsGV7d_8rROm_64RvI91b8B5C6o0UMQ98vOhpmdOx5dCYg4UUf5so2w8u_2HyUU_XSVYw53nbUWWy9bvjr_VuHXZHGcaNhQG1cXWiMfRGtbl82lm3BN54UHTz9sVwH4vmQvpwKwYOhYwk25jc2-fre2hvBERAFju1x5E-ZhuKGLwidn1e3JOrfUtiGrDDucKdVI66kqrcYnTPIJtJBziul]--></g></svg>