<svg xmlns="http://www.w3.org/2000/svg" xmlns:xlink="http://www.w3.org/1999/xlink" contentStyleType="text/css" data-diagram-type="SEQUENCE" height="1919px" preserveAspectRatio="none" style="width:1676px;height:1919px;background:#FFFFFF;" version="1.1" viewBox="0 0 1676 1919" width="1676px" zoomAndPan="magnify"><title>EnergyPilot &#8212; MPC Step Sequence</title><defs/><g><text fill="#000000" font-family="sans-serif" font-size="14" font-weight="bold" lengthAdjust="spacing" textLength="237.9571" x="720.9306" y="29.9659">EnergyPilot &#8212; MPC Step Sequence</text><rect fill="none" height="1741.4152" style="stroke:#000000;stroke-width:1.5;" width="1660.8183" x="10" y="109.7561"/><rect fill="none" height="176.2536" style="stroke:#000000;stroke-width:1.5;" width="570.7287" x="30" y="194.4081"/><rect fill="none" height="218.2354" style="stroke:#000000;stroke-width:1.5;" width="688.1614" x="30" y="384.6617"/><rect fill="none" height="163.2536" style="stroke:#000000;stroke-width:1.5;" width="1054.0796" x="30" y="616.8971"/><rect fill="none" height="678.8072" style="stroke:#000000;stroke-width:1.5;" width="1558.362" x="30" y="794.1507"/><rect fill="none" height="77.652" style="stroke:#000000;stroke-width:1.5;" width="579.1208" x="910.4706" y="989.1287"/><rect fill="none" height="135.6158" style="stroke:#000000;stroke-width:1.5;" width="667.8914" x="910.4706" y="1138.7445"/><rect fill="none" height="106.6339" style="stroke:#000000;stroke-width:1.5;" width="667.8914" x="910.4706" y="1288.3603"/><rect fill="none" height="357.2134" style="stroke:#000000;stroke-width:1.5;" width="1640.8183" x="20" y="1486.9579"/><rect fill="none" height="221.2173" style="stroke:#000000;stroke-width:1.5;" width="1620.8183" x="30" y="1513.6462"/><g><title>MPC</title><rect fill="#000000" fill-opacity="0.00000" height="1775.4152" width="8" x="55.8641" y="92.7561"/><line style="stroke:#181818;stroke-width:0.5;stroke-dasharray:5,5;" x1="59" x2="59" y1="92.7561" y2="1868.1714"/></g><g><title>Time</title><rect fill="#000000" fill-opacity="0.00000" height="1775.4152" width="8" x="284.5606" y="92.7561"/><line style="stroke:#181818;stroke-width:0.5;stroke-dasharray:5,5;" x1="287.6825" x2="287.6825" y1="92.7561" y2="1868.1714"/></g><g><title>TimeSeries</title><rect fill="#000000" fill-opacity="0.00000" height="1775.4152" width="8" x="353.2789" y="92.7561"/><line style="stroke:#181818;stroke-width:0.5;stroke-dasharray:5,5;" x1="356.4387" x2="356.4387" y1="92.7561" y2="1868.1714"/></g><g><title>Sensor</title><rect fill="#000000" fill-opacity="0.00000" height="1775.4152" width="8" x="560.3605" y="92.7561"/><line style="stroke:#181818;stroke-width:0.5;stroke-dasharray:5,5;" x1="563.9924" x2="563.9924" y1="92.7561" y2="1868.1714"/></g><g><title>SeriesForecaster</title><rect fill="#000000" fill-opacity="0.00000" height="1775.4152" width="8" x="650.445" y="92.7561"/><line style="stroke:#181818;stroke-width:0.5;stroke-dasharray:5,5;" x1="653.7287" x2="653.7287" y1="92.7561" y2="1868.1714"/></g><g><title>PhysicalEntity</title><rect fill="#000000" fill-opacity="0.00000" height="1775.4152" width="8" x="759.7596" y="92.7561"/><line style="stroke:#181818;stroke-width:0.5;stroke-dasharray:5,5;" x1="763.1614" x2="763.1614" y1="92.7561" y2="1868.1714"/></g><g><title>OptimizationComponent</title><rect fill="#000000" fill-opacity="0.00000" height="1775.4152" width="8" x="993.2751" y="92.7561"/><line style="stroke:#181818;stroke-width:0.5;stroke-dasharray:5,5;" x1="996.4706" x2="996.4706" y1="92.7561" y2="1868.1714"/></g><g><title>HouseholdOptimization</title><rect fill="#000000" fill-opacity="0.00000" height="1775.4152" width="8" x="1285.6622" y="92.7561"/><line style="stroke:#181818;stroke-width:0.5;stroke-dasharray:5,5;" x1="1289.5578" x2="1289.5578" y1="92.7561" y2="1868.1714"/></g><g><title>VariableRegistry</title><rect fill="#000000" fill-opacity="0.00000" height="938.0588" width="8" x="1422.6791" y="930.1125"/><line style="stroke:#181818;stroke-width:0.5;stroke-dasharray:5,5;" x1="1425.7667" x2="1425.7667" y1="930.1125" y2="1868.1714"/></g><g><title>Constraints</title><rect fill="#000000" fill-opacity="0.00000" height="896.7147" width="8" x="1525.0517" y="971.4566"/><line style="stroke:#181818;stroke-width:0.5;stroke-dasharray:5,5;" x1="1528.7415" x2="1528.7415" y1="971.4566" y2="1868.1714"/></g><g><title>Actuator</title><rect fill="#000000" fill-opacity="0.00000" height="1775.4152" width="8" x="1605.5901" y="92.7561"/><line style="stroke:#181818;stroke-width:0.5;stroke-dasharray:5,5;" x1="1609.362" x2="1609.362" y1="92.7561" y2="1868.1714"/></g><g class="participant participant-head" data-participant="mpc"><rect fill="#E2E2F0" height="30.3441" rx="2.5" ry="2.5" style="stroke:#181818;stroke-width:0.5;" width="39.7282" x="40" y="61.412"/><text fill="#000000" font-family="sans-serif" font-size="12" lengthAdjust="spacing" textLength="25.7282" x="47" y="81.2401">MPC</text></g><g class="participant participant-tail" data-participant="mpc"><rect fill="#E2E2F0" height="30.3441" rx="2.5" ry="2.5" style="stroke:#181818;stroke-width:0.5;" width="39.7282" x="40" y="1867.1714"/><text fill="#000000" font-family="sans-serif" font-size="12" lengthAdjust="spacing" textLength="25.7282" x="47" y="1886.9995">MPC</text></g><g class="participant participant-head" data-participant="time"><rect fill="#E2E2F0" height="30.3441" rx="2.5" ry="2.5" style="stroke:#181818;stroke-width:0.5;" width="41.7562" x="267.6825" y="61.412"/><text fill="#000000" font-family="sans-serif" font-size="12" lengthAdjust="spacing" textLength="27.7562" x="274.6825" y="81.2401">Time</text></g><g class="participant participant-tail" data-participant="time"><rect fill="#E2E2F0" height="30.3441" rx="2.5" ry="2.5" style="stroke:#181818;stroke-width:0.5;" width="41.7562" x="267.6825" y="1867.1714"/><text fill="#000000" font-family="sans-serif" font-size="12" lengthAdjust="spacing" textLength="27.7562" x="274.6825" y="1886.9995">Time</text></g><g class="participant participant-head" data-participant="ts"><rect fill="#E2E2F0" height="30.3441" rx="2.5" ry="2.5" style="stroke:#181818;stroke-width:0.5;" width="75.6805" x="319.4387" y="61.412"/><text fill="#000000" font-family="sans-serif" font-size="12" lengthAdjust="spacing" textLength="61.6805" x="326.4387" y="81.2401">TimeSeries</text></g><g class="participant participant-tail" data-participant="ts"><rect fill="#E2E2F0" height="30.3441" rx="2.5" ry="2.5" style="stroke:#181818;stroke-width:0.5;" width="75.6805" x="319.4387" y="1867.1714"/><text fill="#000000" font-family="sans-serif" font-size="12" lengthAdjust="spacing" textLength="61.6805" x="326.4387" y="1886.9995">TimeSeries</text></g><g class="participant participant-head" data-participant="sensor"><rect fill="#E2E2F0" height="30.3441" rx="2.5" ry="2.5" style="stroke:#181818;stroke-width:0.5;" width="52.7363" x="537.9924" y="61.412"/><text fill="#000000" font-family="sans-serif" font-size="12" lengthAdjust="spacing" textLength="38.7363" x="544.9924" y="81.2401">Sensor</text></g><g class="participant participant-tail" data-participant="sensor"><rect fill="#E2E2F0" height="30.3441" rx="2.5" ry="2.5" style="stroke:#181818;stroke-width:0.5;" width="52.7363" x="537.9924" y="1867.1714"/><text fill="#000000" font-family="sans-serif" font-size="12" lengthAdjust="spacing" textLength="38.7363" x="544.9924" y="1886.9995">Sensor</text></g><g class="participant participant-head" data-participant="fc"><rect fill="#E2E2F0" height="30.3441" rx="2.5" ry="2.5" style="stroke:#181818;stroke-width:0.5;" width="107.4327" x="600.7287" y="61.412"/><text fill="#000000" font-family="sans-serif" font-size="12" lengthAdjust="spacing" textLength="93.4327" x="607.7287" y="81.2401">SeriesForecaster</text></g><g class="participant participant-tail" data-participant="fc"><rect fill="#E2E2F0" height="30.3441" rx="2.5" ry="2.5" style="stroke:#181818;stroke-width:0.5;" width="107.4327" x="600.7287" y="1867.1714"/><text fill="#000000" font-family="sans-serif" font-size="12" lengthAdjust="spacing" textLength="93.4327" x="607.7287" y="1886.9995">SeriesForecaster</text></g><g class="participant participant-head" data-participant="pe"><rect fill="#E2E2F0" height="30.3441" rx="2.5" ry="2.5" style="stroke:#181818;stroke-width:0.5;" width="91.1965" x="718.1614" y="61.412"/><text fill="#000000" font-family="sans-serif" font-size="12" lengthAdjust="spacing" textLength="77.1965" x="725.1614" y="81.2401">PhysicalEntity</text></g><g class="participant participant-tail" data-participant="pe"><rect fill="#E2E2F0" height="30.3441" rx="2.5" ry="2.5" style="stroke:#181818;stroke-width:0.5;" width="91.1965" x="718.1614" y="1867.1714"/><text fill="#000000" font-family="sans-serif" font-size="12" lengthAdjust="spacing" textLength="77.1965" x="725.1614" y="1886.9995">PhysicalEntity</text></g><g class="participant participant-head" data-participant="comp"><rect fill="#E2E2F0" height="30.3441" rx="2.5" ry="2.5" style="stroke:#181818;stroke-width:0.5;" width="153.609" x="920.4706" y="61.412"/><text fill="#000000" font-family="sans-serif" font-size="12" lengthAdjust="spacing" textLength="139.609" x="927.4706" y="81.2401">OptimizationComponent</text></g><g class="participant participant-tail" data-participant="comp"><rect fill="#E2E2F0" height="30.3441" rx="2.5" ry="2.5" style="stroke:#181818;stroke-width:0.5;" width="153.609" x="920.4706" y="1867.1714"/><text fill="#000000" font-family="sans-serif" font-size="12" lengthAdjust="spacing" textLength="139.609" x="927.4706" y="1886.9995">OptimizationComponent</text></g><g class="participant participant-head" data-participant="milp"><rect fill="#E2E2F0" height="46.6882" rx="2.5" ry="2.5" style="stroke:#181818;stroke-width:0.5;" width="148.209" x="1215.5578" y="45.0679"/><text fill="#000000" font-family="sans-serif" font-size="12" lengthAdjust="spacing" textLength="134.209" x="1222.5578" y="64.896">HouseholdOptimization</text><text fill="#000000" font-family="sans-serif" font-size="12" lengthAdjust="spacing" textLength="47.9404" x="1265.6921" y="81.2401">Problem</text></g><g class="participant participant-tail" data-participant="milp"><rect fill="#E2E2F0" height="46.6882" rx="2.5" ry="2.5" style="stroke:#181818;stroke-width:0.5;" width="148.209" x="1215.5578" y="1867.1714"/><text fill="#000000" font-family="sans-serif" font-size="12" lengthAdjust="spacing" textLength="134.209" x="1222.5578" y="1886.9995">HouseholdOptimization</text><text fill="#000000" font-family="sans-serif" font-size="12" lengthAdjust="spacing" textLength="47.9404" x="1265.6921" y="1903.3436">Problem</text></g><g class="participant participant-tail" data-participant="reg"><rect fill="#E2E2F0" height="30.3441" rx="2.5" ry="2.5" style="stroke:#181818;stroke-width:0.5;" width="105.8247" x="1373.7667" y="1867.1714"/><text fill="#000000" font-family="sans-serif" font-size="12" lengthAdjust="spacing" textLength="91.8247" x="1380.7667" y="1886.9995">VariableRegistry</text></g><g class="participant participant-tail" data-participant="con"><rect fill="#E2E2F0" height="30.3441" rx="2.5" ry="2.5" style="stroke:#181818;stroke-width:0.5;" width="78.6205" x="1489.7415" y="1867.1714"/><text fill="#000000" font-family="sans-serif" font-size="12" lengthAdjust="spacing" textLength="64.6205" x="1496.7415" y="1886.9995">Constraints</text></g><g class="participant participant-head" data-participant="act"><rect fill="#E2E2F0" height="30.3441" rx="2.5" ry="2.5" style="stroke:#181818;stroke-width:0.5;" width="62.4563" x="1578.362" y="61.412"/><text fill="#000000" font-family="sans-serif" font-size="12" lengthAdjust="spacing" textLength="48.4563" x="1585.362" y="81.2401">Actuator</text></g><g class="participant participant-tail" data-participant="act"><rect fill="#E2E2F0" height="30.3441" rx="2.5" ry="2.5" style="stroke:#181818;stroke-width:0.5;" width="62.4563" x="1578.362" y="1867.1714"/><text fill="#000000" font-family="sans-serif" font-size="12" lengthAdjust="spacing" textLength="48.4563" x="1585.362" y="1886.9995">Actuator</text></g><path d="M10,109.7561 L81.1122,109.7561 L81.1122,118.1003 L71.1122,128.1003 L10,128.1003 L10,109.7561" fill="#EEEEEE" style="stroke:#000000;stroke-width:1.5;"/><rect fill="none" height="1741.4152" style="stroke:#000000;stroke-width:1.5;" width="1660.8183" x="10" y="109.7561"/><text fill="#000000" font-family="sans-serif" font-size="12" font-weight="bold" lengthAdjust="spacing" textLength="26.1122" x="25" y="123.5842">loop</text><text fill="#000000" font-family="sans-serif" font-size="12" font-weight="bold" lengthAdjust="spacing" textLength="127.8729" x="96.1122" y="124.5842">[step = 0 &#8230; T_total &#8722; 1]</text><g class="message" data-participant-1="mpc" data-participant-2="time"><polygon fill="#181818" points="276.5606,146.4263,286.5606,150.4263,276.5606,154.4263,280.5606,150.4263" style="stroke:#181818;stroke-width:1;"/><line style="stroke:#181818;stroke-width:1;" x1="59.8641" x2="282.5606" y1="150.4263" y2="150.4263"/><text fill="#000000" font-family="sans-serif" font-size="11" lengthAdjust="spacing" textLength="23.5398" x="66.8641" y="145.2033">get()</text></g><g class="message" data-participant-1="time" data-participant-2="mpc"><polygon fill="#181818" points="70.8641,175.4081,60.8641,179.4081,70.8641,183.4081,66.8641,179.4081" style="stroke:#181818;stroke-width:1;"/><line style="stroke:#181818;stroke-width:1;stroke-dasharray:2,2;" x1="64.8641" x2="287.5606" y1="179.4081" y2="179.4081"/><text fill="#000000" font-family="sans-serif" font-size="11" lengthAdjust="spacing" textLength="55.7586" x="76.8641" y="174.1852">timestamp</text></g><path d="M30,194.4081 L210.733,194.4081 L210.733,202.7523 L200.733,212.7523 L30,212.7523 L30,194.4081" fill="#EEEEEE" style="stroke:#000000;stroke-width:1.5;"/><rect fill="none" height="176.2536" style="stroke:#000000;stroke-width:1.5;" width="570.7287" x="30" y="194.4081"/><text fill="#000000" font-family="sans-serif" font-size="12" font-weight="bold" lengthAdjust="spacing" textLength="135.733" x="45" y="208.2362">Observe all TimeSeries</text><g class="message" data-participant-1="mpc" data-participant-2="ts"><polygon fill="#181818" points="345.2789,229.7342,355.2789,233.7342,345.2789,237.7342,349.2789,233.7342" style="stroke:#181818;stroke-width:1;"/><line style="stroke:#181818;stroke-width:1;" x1="59.8641" x2="351.2789" y1="233.7342" y2="233.7342"/><text fill="#000000" font-family="sans-serif" font-size="11" lengthAdjust="spacing" textLength="47.8276" x="66.8641" y="228.5112">observe()</text></g><g class="message" data-participant-1="ts" data-participant-2="sensor"><polygon fill="#181818" points="552.3605,258.716,562.3605,262.716,552.3605,266.716,556.3605,262.716" style="stroke:#181818;stroke-width:1;"/><line style="stroke:#181818;stroke-width:1;" x1="357.2789" x2="558.3605" y1="262.716" y2="262.716"/><text fill="#000000" font-family="sans-serif" font-size="11" lengthAdjust="spacing" textLength="30.2828" x="364.2789" y="257.4931">read()</text></g><g class="message" data-participant-1="sensor" data-participant-2="ts"><polygon fill="#181818" points="368.2789,287.6979,358.2789,291.6979,368.2789,295.6979,364.2789,291.6979" style="stroke:#181818;stroke-width:1;"/><line style="stroke:#181818;stroke-width:1;stroke-dasharray:2,2;" x1="362.2789" x2="563.3605" y1="291.6979" y2="291.6979"/><text fill="#000000" font-family="sans-serif" font-size="11" lengthAdjust="spacing" textLength="27.5988" x="374.2789" y="286.475">value</text></g><g class="message" data-participant-1="ts" data-participant-2="ts"><line style="stroke:#181818;stroke-width:1;" x1="357.2789" x2="399.2789" y1="320.6798" y2="320.6798"/><line style="stroke:#181818;stroke-width:1;" x1="399.2789" x2="399.2789" y1="320.6798" y2="333.6798"/><line style="stroke:#181818;stroke-width:1;" x1="358.2789" x2="399.2789" y1="333.6798" y2="333.6798"/><polygon fill="#181818" points="368.2789,329.6798,358.2789,333.6798,368.2789,337.6798,364.2789,333.6798" style="stroke:#181818;stroke-width:1;"/><text fill="#000000" font-family="sans-serif" font-size="11" lengthAdjust="spacing" textLength="193.0816" x="364.2789" y="315.4568">add_measurement(timestamp, value)</text></g><g class="message" data-participant-1="ts" data-participant-2="mpc"><polygon fill="#181818" points="70.8641,358.6617,60.8641,362.6617,70.8641,366.6617,66.8641,362.6617" style="stroke:#181818;stroke-width:1;"/><line style="stroke:#181818;stroke-width:1;stroke-dasharray:2,2;" x1="64.8641" x2="356.2789" y1="362.6617" y2="362.6617"/><text fill="#000000" font-family="sans-serif" font-size="11" lengthAdjust="spacing" textLength="27.5988" x="76.8641" y="357.4387">value</text></g><path d="M30,384.6617 L212.305,384.6617 L212.305,393.0058 L202.305,403.0058 L30,403.0058 L30,384.6617" fill="#EEEEEE" style="stroke:#000000;stroke-width:1.5;"/><rect fill="none" height="218.2354" style="stroke:#000000;stroke-width:1.5;" width="688.1614" x="30" y="384.6617"/><text fill="#000000" font-family="sans-serif" font-size="12" font-weight="bold" lengthAdjust="spacing" textLength="137.305" x="45" y="398.4898">Forecast all TimeSeries</text><g class="message" data-participant-1="mpc" data-participant-2="ts"><polygon fill="#181818" points="345.2789,419.9877,355.2789,423.9877,345.2789,427.9877,349.2789,423.9877" style="stroke:#181818;stroke-width:1;"/><line style="stroke:#181818;stroke-width:1;" x1="59.8641" x2="351.2789" y1="423.9877" y2="423.9877"/><text fill="#000000" font-family="sans-serif" font-size="11" lengthAdjust="spacing" textLength="82.8184" x="66.8641" y="418.7647">forecast(T_h, dt)</text></g><g class="message" data-participant-1="ts" data-participant-2="ts"><line style="stroke:#181818;stroke-width:1;" x1="357.2789" x2="399.2789" y1="452.9696" y2="452.9696"/><line style="stroke:#181818;stroke-width:1;" x1="399.2789" x2="399.2789" y1="452.9696" y2="465.9696"/><line style="stroke:#181818;stroke-width:1;" x1="358.2789" x2="399.2789" y1="465.9696" y2="465.9696"/><polygon fill="#181818" points="368.2789,461.9696,358.2789,465.9696,368.2789,469.9696,364.2789,465.9696" style="stroke:#181818;stroke-width:1;"/><text fill="#000000" font-family="sans-serif" font-size="11" lengthAdjust="spacing" textLength="163.5908" x="364.2789" y="447.7466">_sample_history_equidistant(dt)</text></g><g class="message" data-participant-1="ts" data-participant-2="fc"><polygon fill="#181818" points="642.445,490.9515,652.445,494.9515,642.445,498.9515,646.445,494.9515" style="stroke:#181818;stroke-width:1;"/><line style="stroke:#181818;stroke-width:1;" x1="357.2789" x2="648.445" y1="494.9515" y2="494.9515"/><text fill="#000000" font-family="sans-serif" font-size="11" lengthAdjust="spacing" textLength="124.3101" x="364.2789" y="489.7285">forecast(history, T_h, dt)</text></g><g class="message" data-participant-1="fc" data-participant-2="ts"><polygon fill="#181818" points="368.2789,519.9334,358.2789,523.9334,368.2789,527.9334,364.2789,523.9334" style="stroke:#181818;stroke-width:1;"/><line style="stroke:#181818;stroke-width:1;stroke-dasharray:2,2;" x1="362.2789" x2="653.445" y1="523.9334" y2="523.9334"/><text fill="#000000" font-family="sans-serif" font-size="11" lengthAdjust="spacing" textLength="68.4965" x="374.2789" y="518.7104">ndarray [T_h]</text></g><g class="message" data-participant-1="ts" data-participant-2="ts"><line style="stroke:#181818;stroke-width:1;" x1="357.2789" x2="399.2789" y1="552.9153" y2="552.9153"/><line style="stroke:#181818;stroke-width:1;" x1="399.2789" x2="399.2789" y1="552.9153" y2="565.9153"/><line style="stroke:#181818;stroke-width:1;" x1="358.2789" x2="399.2789" y1="565.9153" y2="565.9153"/><polygon fill="#181818" points="368.2789,561.9153,358.2789,565.9153,368.2789,569.9153,364.2789,565.9153" style="stroke:#181818;stroke-width:1;"/><text fill="#000000" font-family="sans-serif" font-size="11" lengthAdjust="spacing" textLength="62.2156" x="364.2789" y="547.6923">cache result</text></g><g class="message" data-participant-1="ts" data-participant-2="mpc"><polygon fill="#181818" points="70.8641,590.8971,60.8641,594.8971,70.8641,598.8971,66.8641,594.8971" style="stroke:#181818;stroke-width:1;"/><line style="stroke:#181818;stroke-width:1;stroke-dasharray:2,2;" x1="64.8641" x2="356.2789" y1="594.8971" y2="594.8971"/><text fill="#000000" font-family="sans-serif" font-size="11" lengthAdjust="spacing" textLength="68.4965" x="76.8641" y="589.6742">ndarray [T_h]</text></g><path d="M30,616.8971 L239.7251,616.8971 L239.7251,625.2413 L229.7251,635.2413 L30,635.2413 L30,616.8971" fill="#EEEEEE" style="stroke:#000000;stroke-width:1.5;"/><rect fill="none" height="163.2536" style="stroke:#000000;stroke-width:1.5;" width="1054.0796" x="30" y="616.8971"/><text fill="#000000" font-family="sans-serif" font-size="12" font-weight="bold" lengthAdjust="spacing" textLength="164.7251" x="45" y="630.7252">Observe all PhysicalEntities</text><g class="message" data-participant-1="mpc" data-participant-2="pe"><polygon fill="#181818" points="751.7596,652.2231,761.7596,656.2231,751.7596,660.2231,755.7596,656.2231" style="stroke:#181818;stroke-width:1;"/><line style="stroke:#181818;stroke-width:1;" x1="59.8641" x2="757.7596" y1="656.2231" y2="656.2231"/><text fill="#000000" font-family="sans-serif" font-size="11" lengthAdjust="spacing" textLength="47.8276" x="66.8641" y="651.0002">observe()</text></g><g class="message" data-participant-1="pe" data-participant-2="sensor"><polygon fill="#181818" points="575.3605,681.205,565.3605,685.205,575.3605,689.205,571.3605,685.205" style="stroke:#181818;stroke-width:1;"/><line style="stroke:#181818;stroke-width:1;" x1="569.3605" x2="762.7596" y1="685.205" y2="685.205"/><text fill="#000000" font-family="sans-serif" font-size="11" lengthAdjust="spacing" textLength="30.2828" x="581.3605" y="679.9821">read()</text></g><g class="message" data-participant-1="sensor" data-participant-2="pe"><polygon fill="#181818" points="751.7596,710.1869,761.7596,714.1869,751.7596,718.1869,755.7596,714.1869" style="stroke:#181818;stroke-width:1;"/><line style="stroke:#181818;stroke-width:1;stroke-dasharray:2,2;" x1="564.3605" x2="757.7596" y1="714.1869" y2="714.1869"/><text fill="#000000" font-family="sans-serif" font-size="11" lengthAdjust="spacing" textLength="56.0446" x="571.3605" y="708.9639">state value</text></g><g class="message" data-participant-1="pe" data-participant-2="comp"><polygon fill="#181818" points="985.2751,739.1688,995.2751,743.1688,985.2751,747.1688,989.2751,743.1688" style="stroke:#181818;stroke-width:1;"/><line style="stroke:#181818;stroke-width:1;" x1="763.7596" x2="991.2751" y1="743.1688" y2="743.1688"/><text fill="#000000" font-family="sans-serif" font-size="11" lengthAdjust="spacing" textLength="113.2882" x="770.7596" y="737.9458">set_initial_state(value)</text></g><g class="message" data-participant-1="pe" data-participant-2="mpc"><polygon fill="#181818" points="70.8641,768.1507,60.8641,772.1507,70.8641,776.1507,66.8641,772.1507" style="stroke:#181818;stroke-width:1;"/><line style="stroke:#181818;stroke-width:1;stroke-dasharray:2,2;" x1="64.8641" x2="762.7596" y1="772.1507" y2="772.1507"/><text fill="#000000" font-family="sans-serif" font-size="11" lengthAdjust="spacing" textLength="56.0446" x="76.8641" y="766.9277">state value</text></g><path d="M30,794.1507 L106.6202,794.1507 L106.6202,802.4948 L96.6202,812.4948 L30,812.4948 L30,794.1507" fill="#EEEEEE" style="stroke:#000000;stroke-width:1.5;"/><rect fill="none" height="678.8072" style="stroke:#000000;stroke-width:1.5;" width="1558.362" x="30" y="794.1507"/><text fill="#000000" font-family="sans-serif" font-size="12" font-weight="bold" lengthAdjust="spacing" textLength="31.6202" x="45" y="807.9788">Solve</text><g class="message" data-participant-1="mpc" data-participant-2="milp"><polygon fill="#181818" points="1277.6622,829.4767,1287.6622,833.4767,1277.6622,837.4767,1281.6622,833.4767" style="stroke:#181818;stroke-width:1;"/><line style="stroke:#181818;stroke-width:1;" x1="59.8641" x2="1283.6622" y1="833.4767" y2="833.4767"/><text fill="#000000" font-family="sans-serif" font-size="11" lengthAdjust="spacing" textLength="67.4955" x="66.8641" y="828.2537">solve(T_h, dt)</text></g><g class="message" data-participant-1="milp" data-participant-2="ts"><polygon fill="#181818" points="368.2789,858.4586,358.2789,862.4586,368.2789,866.4586,364.2789,862.4586" style="stroke:#181818;stroke-width:1;"/><line style="stroke:#181818;stroke-width:1;" x1="362.2789" x2="1288.6622" y1="862.4586" y2="862.4586"/><text fill="#000000" font-family="sans-serif" font-size="11" lengthAdjust="spacing" textLength="82.8184" x="374.2789" y="857.2356">forecast(T_h, dt)</text></g><g class="message" data-participant-1="ts" data-participant-2="milp"><polygon fill="#181818" points="1277.6622,887.4405,1287.6622,891.4405,1277.6622,895.4405,1281.6622,891.4405" style="stroke:#181818;stroke-width:1;"/><line style="stroke:#181818;stroke-width:1;stroke-dasharray:2,2;" x1="357.2789" x2="1283.6622" y1="891.4405" y2="891.4405"/><text fill="#000000" font-family="sans-serif" font-size="11" lengthAdjust="spacing" textLength="79.9584" x="364.2789" y="886.2175">cached ndarray</text></g><g class="message" data-participant-1="milp" data-participant-2="reg"><polygon fill="#181818" points="1361.7667,916.4224,1371.7667,920.4224,1361.7667,924.4224,1365.7667,920.4224" style="stroke:#181818;stroke-width:1;"/><line style="stroke:#181818;stroke-width:1;" x1="1289.6622" x2="1367.7667" y1="920.4224" y2="920.4224"/><text fill="#000000" font-family="sans-serif" font-size="11" lengthAdjust="spacing" textLength="43.5707" x="1296.6622" y="915.1994">&#171;create&#187;</text></g><rect fill="#E2E2F0" height="30.3441" rx="2.5" ry="2.5" style="stroke:#181818;stroke-width:0.5;" width="105.8247" x="1373.7667" y="899.4405"/><text fill="#000000" font-family="sans-serif" font-size="12" lengthAdjust="spacing" textLength="91.8247" x="1380.7667" y="919.2686">VariableRegistry</text><g class="message" data-participant-1="milp" data-participant-2="con"><polygon fill="#181818" points="1477.7415,957.7665,1487.7415,961.7665,1477.7415,965.7665,1481.7415,961.7665" style="stroke:#181818;stroke-width:1;"/><line style="stroke:#181818;stroke-width:1;" x1="1289.6622" x2="1483.7415" y1="961.7665" y2="961.7665"/><text fill="#000000" font-family="sans-serif" font-size="11" lengthAdjust="spacing" textLength="43.5707" x="1296.6622" y="956.5435">&#171;create&#187;</text></g><rect fill="#E2E2F0" height="30.3441" rx="2.5" ry="2.5" style="stroke:#181818;stroke-width:0.5;" width="78.6205" x="1489.7415" y="940.7846"/><text fill="#000000" font-family="sans-serif" font-size="12" lengthAdjust="spacing" textLength="64.6205" x="1496.7415" y="960.6127">Constraints</text><path d="M910.4706,989.1287 L981.5828,989.1287 L981.5828,997.4728 L971.5828,1007.4728 L910.4706,1007.4728 L910.4706,989.1287" fill="#EEEEEE" style="stroke:#000000;stroke-width:1.5;"/><rect fill="none" height="77.652" style="stroke:#000000;stroke-width:1.5;" width="579.1208" x="910.4706" y="989.1287"/><text fill="#000000" font-family="sans-serif" font-size="12" font-weight="bold" lengthAdjust="spacing" textLength="26.1122" x="925.4706" y="1002.9568">loop</text><text fill="#000000" font-family="sans-serif" font-size="12" font-weight="bold" lengthAdjust="spacing" textLength="208.7895" x="996.5828" y="1003.9568">[for each OptimizationComponent]</text><g class="message" data-participant-1="milp" data-participant-2="comp"><polygon fill="#181818" points="1008.2751,1025.7988,998.2751,1029.7988,1008.2751,1033.7988,1004.2751,1029.7988" style="stroke:#181818;stroke-width:1;"/><line style="stroke:#181818;stroke-width:1;" x1="1002.2751" x2="1288.6622" y1="1029.7988" y2="1029.7988"/><text fill="#000000" font-family="sans-serif" font-size="11" lengthAdjust="spacing" textLength="88.0544" x="1014.2751" y="1024.5758">register(reg, T_h)</text></g><g class="message" data-participant-1="comp" data-participant-2="reg"><polygon fill="#181818" points="1414.6791,1054.7807,1424.6791,1058.7807,1414.6791,1062.7807,1418.6791,1058.7807" style="stroke:#181818;stroke-width:1;"/><line style="stroke:#181818;stroke-width:1;" x1="997.2751" x2="1420.6791" y1="1058.7807" y2="1058.7807"/><text fill="#000000" font-family="sans-serif" font-size="11" lengthAdjust="spacing" textLength="111.7042" x="1004.2751" y="1053.5577">register(name, count)</text></g><g class="message" data-participant-1="milp" data-participant-2="reg"><polygon fill="#181818" points="1414.6791,1090.7626,1424.6791,1094.7626,1414.6791,1098.7626,1418.6791,1094.7626" style="stroke:#181818;stroke-width:1;"/><line style="stroke:#181818;stroke-width:1;" x1="1289.6622" x2="1420.6791" y1="1094.7626" y2="1094.7626"/><text fill="#000000" font-family="sans-serif" font-size="11" lengthAdjust="spacing" textLength="110.3402" x="1296.6622" y="1089.5396">register("p_buy", T_h)</text></g><g class="message" data-participant-1="milp" data-participant-2="reg"><polygon fill="#181818" points="1414.6791,1119.7445,1424.6791,1123.7445,1414.6791,1127.7445,1418.6791,1123.7445" style="stroke:#181818;stroke-width:1;"/><line style="stroke:#181818;stroke-width:1;" x1="1289.6622" x2="1420.6791" y1="1123.7445" y2="1123.7445"/><text fill="#000000" font-family="sans-serif" font-size="11" lengthAdjust="spacing" textLength="108.3162" x="1296.6622" y="1118.5215">register("p_sell", T_h)</text></g><path d="M910.4706,1138.7445 L981.5828,1138.7445 L981.5828,1147.0886 L971.5828,1157.0886 L910.4706,1157.0886 L910.4706,1138.7445" fill="#EEEEEE" style="stroke:#000000;stroke-width:1.5;"/><rect fill="none" height="135.6158" style="stroke:#000000;stroke-width:1.5;" width="667.8914" x="910.4706" y="1138.7445"/><text fill="#000000" font-family="sans-serif" font-size="12" font-weight="bold" lengthAdjust="spacing" textLength="26.1122" x="925.4706" y="1152.5726">loop</text><text fill="#000000" font-family="sans-serif" font-size="12" font-weight="bold" lengthAdjust="spacing" textLength="208.7895" x="996.5828" y="1153.5726">[for each OptimizationComponent]</text><g class="message" data-participant-1="milp" data-participant-2="comp"><polygon fill="#181818" points="1008.2751,1175.4146,998.2751,1179.4146,1008.2751,1183.4146,1004.2751,1179.4146" style="stroke:#181818;stroke-width:1;"/><line style="stroke:#181818;stroke-width:1;" x1="1002.2751" x2="1288.6622" y1="1179.4146" y2="1179.4146"/><text fill="#000000" font-family="sans-serif" font-size="11" lengthAdjust="spacing" textLength="268.3871" x="1014.2751" y="1174.1916">contribute(reg, constraints, objective, lb, ub, T_h, dt)</text></g><g class="message" data-participant-1="comp" data-participant-2="con"><polygon fill="#181818" points="1517.0517,1204.3965,1527.0517,1208.3965,1517.0517,1212.3965,1521.0517,1208.3965" style="stroke:#181818;stroke-width:1;"/><line style="stroke:#181818;stroke-width:1;" x1="997.2751" x2="1523.0517" y1="1208.3965" y2="1208.3965"/><text fill="#000000" font-family="sans-serif" font-size="11" lengthAdjust="spacing" textLength="157.0019" x="1004.2751" y="1203.1735">add_eq(initial state row, value)</text></g><g class="message" data-participant-1="comp" data-participant-2="con"><polygon fill="#181818" points="1517.0517,1233.3784,1527.0517,1237.3784,1517.0517,1241.3784,1521.0517,1237.3784" style="stroke:#181818;stroke-width:1;"/><line style="stroke:#181818;stroke-width:1;" x1="997.2751" x2="1523.0517" y1="1237.3784" y2="1237.3784"/><text fill="#000000" font-family="sans-serif" font-size="11" lengthAdjust="spacing" textLength="133.2421" x="1004.2751" y="1232.1554">add_eq(dynamics rows, 0)</text></g><g class="message" data-participant-1="comp" data-participant-2="con"><polygon fill="#181818" points="1517.0517,1262.3603,1527.0517,1266.3603,1517.0517,1270.3603,1521.0517,1266.3603" style="stroke:#181818;stroke-width:1;"/><line style="stroke:#181818;stroke-width:1;" x1="997.2751" x2="1523.0517" y1="1266.3603" y2="1266.3603"/><text fill="#000000" font-family="sans-serif" font-size="11" lengthAdjust="spacing" textLength="177.3297" x="1004.2751" y="1261.1373">add_ineq(comfort / deadline rows)</text></g><path d="M910.4706,1288.3603 L981.5828,1288.3603 L981.5828,1296.7044 L971.5828,1306.7044 L910.4706,1306.7044 L910.4706,1288.3603" fill="#EEEEEE" style="stroke:#000000;stroke-width:1.5;"/><rect fill="none" height="106.6339" style="stroke:#000000;stroke-width:1.5;" width="667.8914" x="910.4706" y="1288.3603"/><text fill="#000000" font-family="sans-serif" font-size="12" font-weight="bold" lengthAdjust="spacing" textLength="26.1122" x="925.4706" y="1302.1884">loop</text><text fill="#000000" font-family="sans-serif" font-size="12" font-weight="bold" lengthAdjust="spacing" textLength="174.8532" x="996.5828" y="1303.1884">[t = 0 &#8230; T_h &#8722; 1  [grid balance]]</text><g class="message" data-participant-1="milp" data-participant-2="comp"><polygon fill="#181818" points="1008.2751,1325.0304,998.2751,1329.0304,1008.2751,1333.0304,1004.2751,1329.0304" style="stroke:#181818;stroke-width:1;"/><line style="stroke:#181818;stroke-width:1;" x1="1002.2751" x2="1288.6622" y1="1329.0304" y2="1329.0304"/><text fill="#000000" font-family="sans-serif" font-size="11" lengthAdjust="spacing" textLength="77.8464" x="1014.2751" y="1323.8074">net_power(n, t)</text></g><g class="message" data-participant-1="comp" data-participant-2="milp"><polygon fill="#181818" points="1277.6622,1354.0123,1287.6622,1358.0123,1277.6622,1362.0123,1281.6622,1358.0123" style="stroke:#181818;stroke-width:1;"/><line style="stroke:#181818;stroke-width:1;stroke-dasharray:2,2;" x1="997.2751" x2="1283.6622" y1="1358.0123" y2="1358.0123"/><text fill="#000000" font-family="sans-serif" font-size="11" lengthAdjust="spacing" textLength="53.3936" x="1004.2751" y="1352.7893">coeffs, rhs</text></g><g class="message" data-participant-1="milp" data-participant-2="con"><polygon fill="#181818" points="1517.0517,1382.9942,1527.0517,1386.9942,1517.0517,1390.9942,1521.0517,1386.9942" style="stroke:#181818;stroke-width:1;"/><line style="stroke:#181818;stroke-width:1;" x1="1289.6622" x2="1523.0517" y1="1386.9942" y2="1386.9942"/><text fill="#000000" font-family="sans-serif" font-size="11" lengthAdjust="spacing" textLength="215.3895" x="1296.6622" y="1381.7712">add_eq(balance row, load[t] &#8722; gen[t] + rhs)</text></g><g class="message" data-participant-1="milp" data-participant-2="milp"><line style="stroke:#181818;stroke-width:1;" x1="1289.6622" x2="1331.6622" y1="1422.976" y2="1422.976"/><line style="stroke:#181818;stroke-width:1;" x1="1331.6622" x2="1331.6622" y1="1422.976" y2="1435.976"/><line style="stroke:#181818;stroke-width:1;" x1="1290.6622" x2="1331.6622" y1="1435.976" y2="1435.976"/><polygon fill="#181818" points="1300.6622,1431.976,1290.6622,1435.976,1300.6622,1439.976,1296.6622,1435.976" style="stroke:#181818;stroke-width:1;"/><text fill="#000000" font-family="sans-serif" font-size="11" lengthAdjust="spacing" textLength="94.0823" x="1296.6622" y="1417.7531">scipy.milp (HiGHS)</text></g><g class="message" data-participant-1="milp" data-participant-2="mpc"><polygon fill="#181818" points="70.8641,1460.9579,60.8641,1464.9579,70.8641,1468.9579,66.8641,1464.9579" style="stroke:#181818;stroke-width:1;"/><line style="stroke:#181818;stroke-width:1;stroke-dasharray:2,2;" x1="64.8641" x2="1288.6622" y1="1464.9579" y2="1464.9579"/><text fill="#000000" font-family="sans-serif" font-size="11" lengthAdjust="spacing" textLength="88.0544" x="76.8641" y="1459.735">HouseholdResult</text></g><path d="M20,1486.9579 L81.1161,1486.9579 L81.1161,1495.302 L71.1161,1505.302 L20,1505.302 L20,1486.9579" fill="#EEEEEE" style="stroke:#000000;stroke-width:1.5;"/><rect fill="none" height="357.2134" style="stroke:#000000;stroke-width:1.5;" width="1640.8183" x="20" y="1486.9579"/><text fill="#000000" font-family="sans-serif" font-size="12" font-weight="bold" lengthAdjust="spacing" textLength="16.1161" x="35" y="1500.786">alt</text><text fill="#000000" font-family="sans-serif" font-size="12" font-weight="bold" lengthAdjust="spacing" textLength="91.8246" x="96.1161" y="1501.786">[result.success]</text><path d="M30,1513.6462 L301.6936,1513.6462 L301.6936,1521.9903 L291.6936,1531.9903 L30,1531.9903 L30,1513.6462" fill="#EEEEEE" style="stroke:#000000;stroke-width:1.5;"/><rect fill="none" height="221.2173" style="stroke:#000000;stroke-width:1.5;" width="1620.8183" x="30" y="1513.6462"/><text fill="#000000" font-family="sans-serif" font-size="12" font-weight="bold" lengthAdjust="spacing" textLength="226.6936" x="45" y="1527.4742">Execute first action per PhysicalEntity</text><g class="message" data-participant-1="mpc" data-participant-2="pe"><polygon fill="#181818" points="751.7596,1548.9722,761.7596,1552.9722,751.7596,1556.9722,755.7596,1552.9722" style="stroke:#181818;stroke-width:1;"/><line style="stroke:#181818;stroke-width:1;" x1="59.8641" x2="757.7596" y1="1552.9722" y2="1552.9722"/><text fill="#000000" font-family="sans-serif" font-size="11" lengthAdjust="spacing" textLength="51.6446" x="66.8641" y="1547.7492">act(result)</text></g><g class="message" data-participant-1="pe" data-participant-2="comp"><polygon fill="#181818" points="985.2751,1577.9541,995.2751,1581.9541,985.2751,1585.9541,989.2751,1581.9541" style="stroke:#181818;stroke-width:1;"/><line style="stroke:#181818;stroke-width:1;" x1="763.7596" x2="991.2751" y1="1581.9541" y2="1581.9541"/><text fill="#000000" font-family="sans-serif" font-size="11" lengthAdjust="spacing" textLength="201.6396" x="770.7596" y="1576.7311">extract_optimal_power_setpoint(result)</text></g><g class="message" data-participant-1="comp" data-participant-2="pe"><polygon fill="#181818" points="774.7596,1606.9359,764.7596,1610.9359,774.7596,1614.9359,770.7596,1610.9359" style="stroke:#181818;stroke-width:1;"/><line style="stroke:#181818;stroke-width:1;stroke-dasharray:2,2;" x1="768.7596" x2="996.2751" y1="1610.9359" y2="1610.9359"/><text fill="#000000" font-family="sans-serif" font-size="11" lengthAdjust="spacing" textLength="32.8128" x="780.7596" y="1605.713">power</text></g><g class="message" data-participant-1="pe" data-participant-2="comp"><polygon fill="#181818" points="985.2751,1635.9178,995.2751,1639.9178,985.2751,1643.9178,989.2751,1639.9178" style="stroke:#181818;stroke-width:1;"/><line style="stroke:#181818;stroke-width:1;" x1="763.7596" x2="991.2751" y1="1639.9178" y2="1639.9178"/><text fill="#000000" font-family="sans-serif" font-size="11" lengthAdjust="spacing" textLength="209.5155" x="770.7596" y="1634.6948">extract_expected_next_step_state(result)</text></g><g class="message" data-participant-1="comp" data-participant-2="pe"><polygon fill="#181818" points="774.7596,1664.8997,764.7596,1668.8997,774.7596,1672.8997,770.7596,1668.8997" style="stroke:#181818;stroke-width:1;"/><line style="stroke:#181818;stroke-width:1;stroke-dasharray:2,2;" x1="768.7596" x2="996.2751" y1="1668.8997" y2="1668.8997"/><text fill="#000000" font-family="sans-serif" font-size="11" lengthAdjust="spacing" textLength="53.2616" x="780.7596" y="1663.6767">next_state</text></g><g class="message" data-participant-1="pe" data-participant-2="act"><polygon fill="#181818" points="1597.5901,1693.8816,1607.5901,1697.8816,1597.5901,1701.8816,1601.5901,1697.8816" style="stroke:#181818;stroke-width:1;"/><line style="stroke:#181818;stroke-width:1;" x1="763.7596" x2="1603.5901" y1="1697.8816" y2="1697.8816"/><text fill="#000000" font-family="sans-serif" font-size="11" lengthAdjust="spacing" textLength="138.962" x="770.7596" y="1692.6586">execute(power, next_state)</text></g><g class="message" data-participant-1="pe" data-participant-2="mpc"><polygon fill="#181818" points="70.8641,1722.8635,60.8641,1726.8635,70.8641,1730.8635,66.8641,1726.8635" style="stroke:#181818;stroke-width:1;"/><line style="stroke:#181818;stroke-width:1;stroke-dasharray:2,2;" x1="64.8641" x2="762.7596" y1="1726.8635" y2="1726.8635"/><text fill="#000000" font-family="sans-serif" font-size="11" lengthAdjust="spacing" textLength="32.8128" x="76.8641" y="1721.6405">power</text></g><g class="message" data-participant-1="mpc" data-participant-2="mpc"><line style="stroke:#181818;stroke-width:1;" x1="59.8641" x2="101.8641" y1="1762.8454" y2="1762.8454"/><line style="stroke:#181818;stroke-width:1;" x1="101.8641" x2="101.8641" y1="1762.8454" y2="1775.8454"/><line style="stroke:#181818;stroke-width:1;" x1="60.8641" x2="101.8641" y1="1775.8454" y2="1775.8454"/><polygon fill="#181818" points="70.8641,1771.8454,60.8641,1775.8454,70.8641,1779.8454,66.8641,1775.8454" style="stroke:#181818;stroke-width:1;"/><text fill="#000000" font-family="sans-serif" font-size="11" lengthAdjust="spacing" textLength="214.6965" x="66.8641" y="1757.6224">append MPCStep(step, timestamp, result)</text></g><line style="stroke:#000000;stroke-width:1;stroke-dasharray:2,2;" x1="20" x2="1660.8183" y1="1784.8454" y2="1784.8454"/><text fill="#000000" font-family="sans-serif" font-size="12" font-weight="bold" lengthAdjust="spacing" textLength="66.4444" x="25" y="1797.6735">[infeasible]</text><g class="message" data-participant-1="mpc" data-participant-2="mpc"><line style="stroke:#181818;stroke-width:1;" x1="59.8641" x2="101.8641" y1="1823.1714" y2="1823.1714"/><line style="stroke:#181818;stroke-width:1;" x1="101.8641" x2="101.8641" y1="1823.1714" y2="1836.1714"/><line style="stroke:#181818;stroke-width:1;" x1="60.8641" x2="101.8641" y1="1836.1714" y2="1836.1714"/><polygon fill="#181818" points="70.8641,1832.1714,60.8641,1836.1714,70.8641,1840.1714,66.8641,1836.1714" style="stroke:#181818;stroke-width:1;"/><text fill="#000000" font-family="sans-serif" font-size="11" lengthAdjust="spacing" textLength="114.8282" x="66.8641" y="1817.9484">log failure &#8212; skip step</text></g><!--SRC=[pLVDRjms4BxlKmnyYOokjt6QNeBKG60uTO46MMIDNXn3u5ApksmfKY4fnyefnvo3F4CVp4_I8QMLH4ckVGZW66j0udmpdFyPEU4amfb2iwsMGce7jv-_mPlbAQmS5h323oKgZhEP_KUeWXcMGuORLahtMYkt4fyGZf_rYBPXU6MC_jX1ZYSWIsQSuA9WAf8rAxfpE21D3e1Po0iU4ov4Ze7Yw65CMg4HQ6k0ZSahL5QRGBBXSKZsdA-rGSwimngu6To-t5LMS2RFb1Ek2f1YeCNRWZGJdvWJMftglD0AbGj8JcynzboN5dTQPdsczsffz5fYNZj0o07JNym8HlHtk1NMcLeBWziOTQeL4PbGpZQNgnZmYhkIkSOXZBlPJ6fTWFNX_msUKZxy2nUfquv9kFto5OvdCw0_2WWSdGJlmmlOeaiEmtauE2AA1xm8hzOnCZXGdy3jjy_qW-C5l5rRDDVOd3pAB-YqDReiMcsObD0bK03qpRLaawwXZS71QEk9TJOHm23BUjJc_6ZFVyraYGFUG61PbkR8R6amfsH9MkVDQvxumjR7dJnKsS3FpnQmJ-KVnD6jEW_mzAR19XVfRWwPEvpoMch9GnBJ7LM1DbLAxKLaz4pPdOnPDhmlj-6Pm-W2mhK1KnapXbLmIQYhAHKuupkai5lgYzCn6eiOn-gN1VLRpAZ1NWkEaEiCfON7A82elKq4fy39Cg3ZXvL1uAS8EHmKGot1DqWFG9SAHGemcGPmCgY2ejzfXkB6_drE_jMIJ7ppnvzBUEmw2AeC7UkxlBV5qxgaxr2U_B3Yw8I5vCps6TW9unGVXs5Y3ENJ6J6-V5b3Jaw6F7w837deBEPf4M6UaBQ0f0bCpiKM6qiCQM32V4EJq4CerCC87L2jpYrOiHpdH2nLpp4-9wPjRVaEYdHTLWU3Y-u6MvHoZ_vU5fChdH7haZ8-sCox6JwdiliRkHFNP9rSpw5SJpIllb_gkFZHWX-IffoQOg4LRJHPxcJDAdAfuDPpaHfFxsCHYfZecDpWu6TgQYoJT1ROuuZ4RdEzhMDNRnm0briZCbWpoMXnlFe_tobg6eN-w3DW3fCkwLM6nis6R34xUuV8dltDvRNJf6RPfRiAwcrH-SUVl9Wx3DiBt9StxLxL8hmav-BtyzKmqTgcrYw6xxhPCcvilow0jhZ7dEzJROv9rup4XIqvHzivkUw0PpV8ASTX8unV1xYl3-hf9Xu_LHoQtW0YZgI-80vpD4JmXYg7krJx8gH14dA3gjOLckffahzDat1BOBXVFjuKL9QOfOfEKhyzDpFh_XiQ3W9FN4Eomot1LKbGPjxZ65lUvawiUDJwcc4JOAmeYEO_-VmNN-8rdqDly-phJ_i8Wb0Rsb45VNbC2vHw2nic96snuMEIllpgpuasU_t_Vm00]--></g></svg>